<?xml version="1.0" encoding="UTF-8"?>
<svg xmlns="http://www.w3.org/2000/svg" xmlns:xlink="http://www.w3.org/1999/xlink" width="375pt" height="374.999991pt" viewBox="0 0 375 374.999991" version="1.2">
<defs>
<clipPath id="clip1">
  <path d="M 135.777344 136.691406 L 350.277344 136.691406 L 350.277344 351.191406 L 135.777344 351.191406 Z M 135.777344 136.691406 "/>
</clipPath>
</defs>
<g id="surface1">
<path style=" stroke:none;fill-rule:nonzero;fill:rgb(94.119263%,72.549438%,4.309082%);fill-opacity:1;" d="M 235.734375 127.734375 C 235.734375 129.527344 235.691406 131.320312 235.601562 133.109375 C 235.515625 134.898438 235.382812 136.683594 235.207031 138.46875 C 235.03125 140.25 234.8125 142.03125 234.546875 143.800781 C 234.285156 145.574219 233.980469 147.339844 233.628906 149.097656 C 233.277344 150.855469 232.886719 152.605469 232.449219 154.34375 C 232.015625 156.082031 231.535156 157.808594 231.015625 159.523438 C 230.496094 161.238281 229.933594 162.9375 229.328125 164.625 C 228.722656 166.3125 228.078125 167.984375 227.390625 169.640625 C 226.707031 171.296875 225.980469 172.933594 225.210938 174.554688 C 224.445312 176.171875 223.640625 177.773438 222.792969 179.351562 C 221.949219 180.933594 221.0625 182.492188 220.140625 184.03125 C 219.21875 185.566406 218.261719 187.082031 217.265625 188.570312 C 216.269531 190.058594 215.234375 191.523438 214.167969 192.964844 C 213.097656 194.402344 211.996094 195.816406 210.855469 197.203125 C 209.71875 198.585938 208.546875 199.945312 207.34375 201.269531 C 206.140625 202.597656 204.902344 203.898438 203.632812 205.164062 C 202.367188 206.429688 201.066406 207.667969 199.738281 208.871094 C 198.410156 210.074219 197.050781 211.242188 195.664062 212.378906 C 194.277344 213.515625 192.863281 214.621094 191.421875 215.6875 C 189.984375 216.753906 188.515625 217.785156 187.027344 218.78125 C 185.535156 219.777344 184.019531 220.734375 182.480469 221.65625 C 180.941406 222.578125 179.382812 223.460938 177.800781 224.304688 C 176.21875 225.152344 174.617188 225.957031 172.996094 226.722656 C 171.375 227.488281 169.734375 228.214844 168.078125 228.898438 C 166.421875 229.585938 164.746094 230.230469 163.058594 230.835938 C 161.371094 231.4375 159.667969 232 157.949219 232.519531 C 156.234375 233.039062 154.503906 233.519531 152.765625 233.953125 C 151.027344 234.390625 149.277344 234.78125 147.515625 235.132812 C 145.757812 235.480469 143.992188 235.789062 142.21875 236.050781 C 140.441406 236.3125 138.664062 236.53125 136.878906 236.707031 C 135.09375 236.882812 133.304688 237.015625 131.511719 237.105469 C 129.722656 237.191406 127.929688 237.234375 126.136719 237.234375 C 124.339844 237.234375 122.550781 237.191406 120.757812 237.105469 C 118.964844 237.015625 117.179688 236.882812 115.394531 236.707031 C 113.609375 236.53125 111.828125 236.3125 110.054688 236.050781 C 108.28125 235.789062 106.511719 235.480469 104.753906 235.132812 C 102.996094 234.78125 101.246094 234.390625 99.503906 233.953125 C 97.765625 233.519531 96.035156 233.039062 94.320312 232.519531 C 92.605469 232 90.902344 231.4375 89.210938 230.835938 C 87.523438 230.230469 85.851562 229.585938 84.195312 228.898438 C 82.535156 228.214844 80.898438 227.488281 79.277344 226.722656 C 77.652344 225.957031 76.050781 225.152344 74.46875 224.304688 C 72.886719 223.460938 71.328125 222.578125 69.789062 221.65625 C 68.25 220.734375 66.738281 219.777344 65.246094 218.78125 C 63.753906 217.785156 62.289062 216.753906 60.847656 215.6875 C 59.40625 214.621094 57.992188 213.515625 56.605469 212.378906 C 55.21875 211.242188 53.863281 210.074219 52.53125 208.871094 C 51.203125 207.667969 49.90625 206.429688 48.636719 205.164062 C 47.367188 203.898438 46.132812 202.597656 44.925781 201.269531 C 43.722656 199.945312 42.550781 198.585938 41.414062 197.203125 C 40.277344 195.816406 39.171875 194.402344 38.105469 192.964844 C 37.035156 191.523438 36.003906 190.058594 35.007812 188.570312 C 34.011719 187.082031 33.050781 185.566406 32.128906 184.03125 C 31.207031 182.492188 30.324219 180.933594 29.476562 179.351562 C 28.632812 177.773438 27.824219 176.171875 27.058594 174.554688 C 26.292969 172.933594 25.566406 171.296875 24.878906 169.640625 C 24.191406 167.984375 23.546875 166.3125 22.941406 164.625 C 22.339844 162.9375 21.777344 161.238281 21.253906 159.523438 C 20.734375 157.808594 20.257812 156.082031 19.820312 154.34375 C 19.382812 152.605469 18.992188 150.855469 18.640625 149.097656 C 18.292969 147.339844 17.984375 145.574219 17.722656 143.800781 C 17.457031 142.03125 17.238281 140.25 17.0625 138.46875 C 16.886719 136.683594 16.753906 134.898438 16.667969 133.109375 C 16.578125 131.320312 16.535156 129.527344 16.535156 127.734375 C 16.535156 125.945312 16.578125 124.152344 16.667969 122.363281 C 16.753906 120.574219 16.886719 118.785156 17.0625 117.003906 C 17.238281 115.21875 17.457031 113.441406 17.722656 111.667969 C 17.984375 109.894531 18.292969 108.128906 18.640625 106.375 C 18.992188 104.617188 19.382812 102.867188 19.820312 101.128906 C 20.257812 99.390625 20.734375 97.664062 21.253906 95.949219 C 21.777344 94.234375 22.339844 92.535156 22.941406 90.847656 C 23.546875 89.160156 24.191406 87.488281 24.878906 85.832031 C 25.566406 84.175781 26.292969 82.539062 27.058594 80.917969 C 27.824219 79.296875 28.632812 77.699219 29.476562 76.117188 C 30.324219 74.539062 31.207031 72.976562 32.128906 71.441406 C 33.050781 69.902344 34.011719 68.390625 35.007812 66.902344 C 36.003906 65.410156 37.035156 63.945312 38.105469 62.507812 C 39.171875 61.066406 40.277344 59.65625 41.414062 58.269531 C 42.550781 56.882812 43.722656 55.527344 44.925781 54.199219 C 46.132812 52.871094 47.367188 51.574219 48.636719 50.308594 C 49.90625 49.039062 51.203125 47.804688 52.53125 46.601562 C 53.863281 45.398438 55.21875 44.226562 56.605469 43.089844 C 57.992188 41.953125 59.40625 40.851562 60.847656 39.785156 C 62.289062 38.71875 63.753906 37.683594 65.246094 36.691406 C 66.738281 35.695312 68.25 34.734375 69.789062 33.8125 C 71.328125 32.894531 72.886719 32.011719 74.46875 31.164062 C 76.050781 30.320312 77.652344 29.515625 79.277344 28.75 C 80.898438 27.984375 82.535156 27.257812 84.195312 26.570312 C 85.851562 25.886719 87.523438 25.238281 89.210938 24.636719 C 90.902344 24.03125 92.605469 23.472656 94.320312 22.949219 C 96.035156 22.429688 97.765625 21.953125 99.503906 21.515625 C 101.246094 21.082031 102.996094 20.6875 104.753906 20.339844 C 106.511719 19.988281 108.28125 19.683594 110.054688 19.421875 C 111.828125 19.15625 113.609375 18.9375 115.394531 18.761719 C 117.179688 18.585938 118.964844 18.457031 120.757812 18.367188 C 122.550781 18.28125 124.339844 18.234375 126.136719 18.234375 C 127.929688 18.234375 129.722656 18.28125 131.511719 18.367188 C 133.304688 18.457031 135.09375 18.585938 136.878906 18.761719 C 138.664062 18.9375 140.441406 19.15625 142.21875 19.421875 C 143.992188 19.683594 145.757812 19.988281 147.515625 20.339844 C 149.277344 20.6875 151.027344 21.082031 152.765625 21.515625 C 154.503906 21.953125 156.234375 22.429688 157.949219 22.949219 C 159.667969 23.472656 161.371094 24.03125 163.058594 24.636719 C 164.746094 25.238281 166.421875 25.886719 168.078125 26.570312 C 169.734375 27.257812 171.375 27.984375 172.996094 28.75 C 174.617188 29.515625 176.21875 30.320312 177.800781 31.164062 C 179.382812 32.011719 180.941406 32.894531 182.480469 33.8125 C 184.019531 34.734375 185.535156 35.695312 187.027344 36.691406 C 188.515625 37.683594 189.984375 38.71875 191.421875 39.785156 C 192.863281 40.851562 194.277344 41.953125 195.664062 43.089844 C 197.050781 44.226562 198.410156 45.398438 199.738281 46.601562 C 201.066406 47.804688 202.367188 49.039062 203.632812 50.308594 C 204.902344 51.574219 206.140625 52.871094 207.34375 54.199219 C 208.546875 55.527344 209.71875 56.882812 210.855469 58.269531 C 211.996094 59.65625 213.097656 61.066406 214.167969 62.507812 C 215.234375 63.945312 216.269531 65.410156 217.265625 66.902344 C 218.261719 68.390625 219.21875 69.902344 220.140625 71.441406 C 221.0625 72.976562 221.949219 74.539062 222.792969 76.117188 C 223.640625 77.699219 224.445312 79.296875 225.210938 80.917969 C 225.980469 82.539062 226.707031 84.175781 227.390625 85.832031 C 228.078125 87.488281 228.722656 89.160156 229.328125 90.847656 C 229.933594 92.535156 230.496094 94.234375 231.015625 95.949219 C 231.535156 97.664062 232.015625 99.390625 232.449219 101.128906 C 232.886719 102.867188 233.277344 104.617188 233.628906 106.375 C 233.980469 108.128906 234.285156 109.894531 234.546875 111.667969 C 234.8125 113.441406 235.03125 115.21875 235.207031 117.003906 C 235.382812 118.785156 235.515625 120.574219 235.601562 122.363281 C 235.691406 124.152344 235.734375 125.945312 235.734375 127.734375 Z M 235.734375 127.734375 "/>
<path style=" stroke:none;fill-rule:nonzero;fill:rgb(100%,100%,100%);fill-opacity:1;" d="M 95.390625 115.113281 L 126.136719 84.398438 L 156.894531 115.132812 L 174.785156 97.257812 L 126.136719 48.652344 L 77.503906 97.242188 Z M 64.871094 109.859375 L 82.757812 127.734375 L 64.867188 145.609375 L 46.980469 127.734375 Z M 95.390625 140.355469 L 126.136719 171.070312 L 156.894531 140.339844 L 174.792969 158.203125 L 174.785156 158.214844 L 126.136719 206.820312 L 77.5 158.230469 L 77.476562 158.203125 Z M 205.292969 127.738281 L 187.402344 145.609375 L 169.515625 127.738281 L 187.402344 109.863281 Z M 205.292969 127.738281 "/>
<path style=" stroke:none;fill-rule:nonzero;fill:rgb(100%,100%,100%);fill-opacity:1;" d="M 144.28125 127.726562 L 144.289062 127.726562 L 126.136719 109.589844 L 107.972656 127.734375 L 107.996094 127.761719 L 126.136719 145.882812 L 144.296875 127.734375 Z M 144.28125 127.726562 "/>
<g clip-path="url(#clip1)" clip-rule="nonzero">
<path style=" stroke:none;fill-rule:nonzero;fill:rgb(94.119263%,72.549438%,4.309082%);fill-opacity:1;" d="M 350.300781 243.953125 C 350.300781 245.707031 350.257812 247.460938 350.171875 249.214844 C 350.085938 250.96875 349.957031 252.71875 349.785156 254.464844 C 349.613281 256.210938 349.398438 257.953125 349.140625 259.691406 C 348.882812 261.425781 348.582031 263.15625 348.238281 264.878906 C 347.894531 266.597656 347.511719 268.3125 347.085938 270.015625 C 346.660156 271.714844 346.191406 273.40625 345.679688 275.085938 C 345.171875 276.769531 344.621094 278.433594 344.03125 280.085938 C 343.4375 281.738281 342.808594 283.375 342.136719 285 C 341.464844 286.621094 340.753906 288.226562 340 289.8125 C 339.25 291.398438 338.460938 292.964844 337.632812 294.515625 C 336.808594 296.0625 335.941406 297.589844 335.039062 299.09375 C 334.136719 300.601562 333.199219 302.082031 332.222656 303.542969 C 331.246094 305.003906 330.238281 306.4375 329.191406 307.847656 C 328.144531 309.257812 327.066406 310.640625 325.953125 311.996094 C 324.839844 313.355469 323.691406 314.683594 322.515625 315.984375 C 321.335938 317.285156 320.125 318.554688 318.882812 319.796875 C 317.640625 321.039062 316.371094 322.25 315.070312 323.425781 C 313.769531 324.605469 312.441406 325.753906 311.085938 326.867188 C 309.726562 327.980469 308.34375 329.058594 306.933594 330.105469 C 305.523438 331.152344 304.089844 332.160156 302.628906 333.136719 C 301.171875 334.113281 299.6875 335.050781 298.183594 335.953125 C 296.675781 336.855469 295.148438 337.71875 293.601562 338.546875 C 292.054688 339.375 290.484375 340.164062 288.898438 340.914062 C 287.3125 341.664062 285.707031 342.375 284.085938 343.046875 C 282.464844 343.71875 280.828125 344.351562 279.171875 344.941406 C 277.519531 345.535156 275.855469 346.085938 274.175781 346.59375 C 272.496094 347.105469 270.804688 347.570312 269.101562 348 C 267.398438 348.425781 265.6875 348.808594 263.964844 349.152344 C 262.242188 349.496094 260.511719 349.792969 258.777344 350.050781 C 257.039062 350.308594 255.296875 350.523438 253.550781 350.695312 C 251.804688 350.867188 250.054688 350.996094 248.300781 351.082031 C 246.546875 351.171875 244.792969 351.214844 243.039062 351.214844 C 241.28125 351.214844 239.527344 351.171875 237.773438 351.082031 C 236.023438 350.996094 234.273438 350.867188 232.523438 350.695312 C 230.777344 350.523438 229.035156 350.308594 227.300781 350.050781 C 225.5625 349.792969 223.835938 349.496094 222.113281 349.152344 C 220.390625 348.808594 218.679688 348.425781 216.976562 348 C 215.273438 347.570312 213.582031 347.105469 211.902344 346.59375 C 210.222656 346.085938 208.554688 345.535156 206.902344 344.941406 C 205.25 344.351562 203.613281 343.71875 201.992188 343.046875 C 200.367188 342.375 198.765625 341.664062 197.179688 340.914062 C 195.589844 340.164062 194.023438 339.375 192.476562 338.546875 C 190.925781 337.71875 189.398438 336.855469 187.894531 335.953125 C 186.390625 335.050781 184.90625 334.113281 183.445312 333.136719 C 181.988281 332.160156 180.550781 331.152344 179.140625 330.105469 C 177.734375 329.058594 176.347656 327.980469 174.992188 326.867188 C 173.636719 325.753906 172.304688 324.605469 171.003906 323.425781 C 169.703125 322.25 168.433594 321.039062 167.191406 319.796875 C 165.953125 318.554688 164.742188 317.285156 163.5625 315.984375 C 162.382812 314.683594 161.238281 313.355469 160.125 311.996094 C 159.011719 310.640625 157.929688 309.257812 156.886719 307.847656 C 155.839844 306.4375 154.828125 305.003906 153.851562 303.542969 C 152.878906 302.082031 151.9375 300.601562 151.035156 299.09375 C 150.132812 297.589844 149.269531 296.0625 148.441406 294.515625 C 147.613281 292.964844 146.824219 291.398438 146.074219 289.8125 C 145.324219 288.226562 144.613281 286.621094 143.941406 285 C 143.269531 283.375 142.636719 281.738281 142.046875 280.085938 C 141.457031 278.433594 140.90625 276.769531 140.394531 275.085938 C 139.886719 273.40625 139.417969 271.714844 138.992188 270.015625 C 138.566406 268.3125 138.179688 266.597656 137.835938 264.878906 C 137.496094 263.15625 137.195312 261.425781 136.9375 259.691406 C 136.679688 257.953125 136.464844 256.210938 136.292969 254.464844 C 136.121094 252.71875 135.992188 250.96875 135.90625 249.214844 C 135.820312 247.460938 135.777344 245.707031 135.777344 243.953125 C 135.777344 242.195312 135.820312 240.441406 135.90625 238.6875 C 135.992188 236.933594 136.121094 235.183594 136.292969 233.4375 C 136.464844 231.691406 136.679688 229.949219 136.9375 228.210938 C 137.195312 226.476562 137.496094 224.746094 137.835938 223.027344 C 138.179688 221.304688 138.566406 219.589844 138.992188 217.890625 C 139.417969 216.1875 139.886719 214.496094 140.394531 212.816406 C 140.90625 211.136719 141.457031 209.46875 142.046875 207.816406 C 142.636719 206.164062 143.269531 204.527344 143.941406 202.902344 C 144.613281 201.28125 145.324219 199.679688 146.074219 198.089844 C 146.824219 196.503906 147.613281 194.9375 148.441406 193.386719 C 149.269531 191.839844 150.132812 190.3125 151.035156 188.808594 C 151.9375 187.300781 152.878906 185.820312 153.851562 184.359375 C 154.828125 182.902344 155.839844 181.464844 156.886719 180.054688 C 157.929688 178.644531 159.011719 177.261719 160.125 175.90625 C 161.238281 174.546875 162.382812 173.21875 163.5625 171.917969 C 164.742188 170.617188 165.953125 169.347656 167.191406 168.105469 C 168.433594 166.863281 169.703125 165.65625 171.003906 164.476562 C 172.304688 163.296875 173.636719 162.152344 174.992188 161.035156 C 176.347656 159.921875 177.734375 158.84375 179.140625 157.796875 C 180.550781 156.753906 181.988281 155.742188 183.445312 154.765625 C 184.90625 153.792969 186.390625 152.851562 187.894531 151.949219 C 189.398438 151.046875 190.925781 150.183594 192.476562 149.355469 C 194.023438 148.527344 195.589844 147.738281 197.179688 146.988281 C 198.765625 146.238281 200.367188 145.527344 201.992188 144.855469 C 203.613281 144.183594 205.25 143.550781 206.902344 142.960938 C 208.554688 142.367188 210.222656 141.816406 211.902344 141.308594 C 213.582031 140.796875 215.273438 140.332031 216.976562 139.902344 C 218.679688 139.476562 220.390625 139.09375 222.113281 138.75 C 223.835938 138.410156 225.5625 138.109375 227.300781 137.851562 C 229.035156 137.59375 230.777344 137.378906 232.523438 137.207031 C 234.273438 137.035156 236.023438 136.90625 237.773438 136.820312 C 239.527344 136.734375 241.28125 136.691406 243.039062 136.691406 C 244.792969 136.691406 246.546875 136.734375 248.300781 136.820312 C 250.054688 136.90625 251.804688 137.035156 253.550781 137.207031 C 255.296875 137.378906 257.039062 137.59375 258.777344 137.851562 C 260.511719 138.109375 262.242188 138.410156 263.964844 138.75 C 265.6875 139.09375 267.398438 139.476562 269.101562 139.902344 C 270.804688 140.332031 272.496094 140.796875 274.175781 141.308594 C 275.855469 141.816406 277.519531 142.367188 279.171875 142.960938 C 280.828125 143.550781 282.464844 144.183594 284.085938 144.855469 C 285.707031 145.527344 287.3125 146.238281 288.898438 146.988281 C 290.484375 147.738281 292.054688 148.527344 293.601562 149.355469 C 295.148438 150.183594 296.675781 151.046875 298.183594 151.949219 C 299.6875 152.851562 301.171875 153.792969 302.628906 154.765625 C 304.089844 155.742188 305.523438 156.753906 306.933594 157.796875 C 308.34375 158.84375 309.726562 159.921875 311.085938 161.035156 C 312.441406 162.152344 313.769531 163.296875 315.070312 164.476562 C 316.371094 165.65625 317.640625 166.863281 318.882812 168.105469 C 320.125 169.347656 321.335938 170.617188 322.515625 171.917969 C 323.691406 173.21875 324.839844 174.546875 325.953125 175.90625 C 327.066406 177.261719 328.144531 178.644531 329.191406 180.054688 C 330.238281 181.464844 331.246094 182.902344 332.222656 184.359375 C 333.199219 185.820312 334.136719 187.300781 335.039062 188.808594 C 335.941406 190.3125 336.808594 191.839844 337.632812 193.386719 C 338.460938 194.9375 339.25 196.503906 340 198.089844 C 340.753906 199.679688 341.464844 201.28125 342.136719 202.902344 C 342.808594 204.527344 343.4375 206.164062 344.03125 207.816406 C 344.621094 209.46875 345.171875 211.136719 345.679688 212.816406 C 346.191406 214.496094 346.660156 216.1875 347.085938 217.890625 C 347.511719 219.589844 347.894531 221.304688 348.238281 223.027344 C 348.582031 224.746094 348.882812 226.476562 349.140625 228.210938 C 349.398438 229.949219 349.613281 231.691406 349.785156 233.4375 C 349.957031 235.183594 350.085938 236.933594 350.171875 238.6875 C 350.257812 240.441406 350.300781 242.195312 350.300781 243.953125 Z M 350.300781 243.953125 "/>
</g>
<path style=" stroke:none;fill-rule:evenodd;fill:rgb(100%,100%,100%);fill-opacity:1;" d="M 197.390625 216.707031 L 243.082031 171.011719 L 261.300781 189.234375 L 215.609375 234.925781 Z M 197.421875 271.308594 L 270.445312 198.285156 L 288.664062 216.507812 L 215.640625 289.527344 Z M 297.753906 225.648438 L 224.734375 298.671875 L 242.953125 316.890625 L 315.976562 243.867188 Z M 170.101562 243.988281 L 188.320312 225.769531 L 206.539062 243.988281 L 188.320312 262.210938 Z M 170.101562 243.988281 "/>
</g>
</svg>
