<?xml version="1.0" encoding="UTF-8"?>
<svg xmlns="http://www.w3.org/2000/svg" xmlns:xlink="http://www.w3.org/1999/xlink" width="375pt" height="374.999991pt" viewBox="0 0 375 374.999991" version="1.2">
<g id="surface1">
<path style=" stroke:none;fill-rule:nonzero;fill:rgb(94.119263%,72.549438%,4.309082%);fill-opacity:1;" d="M 345.007812 187.410156 C 345.007812 189.988281 344.941406 192.566406 344.816406 195.140625 C 344.691406 197.714844 344.5 200.285156 344.246094 202.847656 C 343.996094 205.414062 343.679688 207.972656 343.300781 210.519531 C 342.921875 213.070312 342.480469 215.609375 341.980469 218.136719 C 341.476562 220.667969 340.910156 223.179688 340.285156 225.679688 C 339.660156 228.179688 338.972656 230.664062 338.222656 233.132812 C 337.472656 235.597656 336.664062 238.042969 335.796875 240.472656 C 334.929688 242.898438 334 245.300781 333.015625 247.683594 C 332.027344 250.066406 330.984375 252.421875 329.878906 254.75 C 328.777344 257.082031 327.621094 259.382812 326.402344 261.65625 C 325.1875 263.929688 323.917969 266.171875 322.59375 268.382812 C 321.265625 270.59375 319.886719 272.769531 318.457031 274.914062 C 317.023438 277.058594 315.539062 279.164062 314.003906 281.234375 C 312.46875 283.304688 310.882812 285.335938 309.246094 287.328125 C 307.609375 289.320312 305.929688 291.273438 304.195312 293.183594 C 302.464844 295.089844 300.6875 296.957031 298.863281 298.78125 C 297.042969 300.601562 295.175781 302.378906 293.265625 304.109375 C 291.355469 305.84375 289.402344 307.523438 287.410156 309.160156 C 285.417969 310.796875 283.386719 312.382812 281.3125 313.917969 C 279.242188 315.453125 277.136719 316.9375 274.992188 318.367188 C 272.847656 319.800781 270.671875 321.179688 268.460938 322.503906 C 266.25 323.828125 264.003906 325.097656 261.730469 326.3125 C 259.457031 327.527344 257.15625 328.6875 254.824219 329.789062 C 252.496094 330.890625 250.136719 331.9375 247.757812 332.921875 C 245.375 333.910156 242.96875 334.835938 240.542969 335.703125 C 238.113281 336.574219 235.667969 337.382812 233.199219 338.128906 C 230.734375 338.878906 228.25 339.566406 225.746094 340.191406 C 223.246094 340.816406 220.730469 341.382812 218.203125 341.886719 C 215.675781 342.386719 213.136719 342.828125 210.585938 343.207031 C 208.035156 343.585938 205.476562 343.898438 202.910156 344.152344 C 200.34375 344.40625 197.773438 344.59375 195.199219 344.722656 C 192.625 344.847656 190.046875 344.910156 187.46875 344.910156 C 184.890625 344.910156 182.316406 344.847656 179.738281 344.722656 C 177.164062 344.59375 174.59375 344.40625 172.027344 344.152344 C 169.460938 343.898438 166.90625 343.585938 164.355469 343.207031 C 161.804688 342.828125 159.265625 342.386719 156.734375 341.886719 C 154.207031 341.382812 151.691406 340.816406 149.191406 340.191406 C 146.691406 339.566406 144.207031 338.878906 141.738281 338.128906 C 139.273438 337.382812 136.824219 336.574219 134.398438 335.703125 C 131.96875 334.835938 129.566406 333.910156 127.183594 332.921875 C 124.800781 331.9375 122.445312 330.890625 120.113281 329.789062 C 117.785156 328.6875 115.480469 327.527344 113.207031 326.3125 C 110.933594 325.097656 108.691406 323.828125 106.480469 322.503906 C 104.269531 321.179688 102.089844 319.800781 99.949219 318.367188 C 97.804688 316.9375 95.695312 315.453125 93.625 313.917969 C 91.554688 312.382812 89.523438 310.796875 87.53125 309.160156 C 85.535156 307.523438 83.585938 305.84375 81.675781 304.109375 C 79.765625 302.378906 77.898438 300.601562 76.074219 298.78125 C 74.253906 296.957031 72.476562 295.089844 70.742188 293.183594 C 69.011719 291.273438 67.328125 289.320312 65.691406 287.328125 C 64.058594 285.335938 62.472656 283.304688 60.9375 281.234375 C 59.398438 279.164062 57.914062 277.058594 56.484375 274.914062 C 55.050781 272.769531 53.671875 270.59375 52.347656 268.382812 C 51.019531 266.171875 49.75 263.929688 48.535156 261.65625 C 47.320312 259.382812 46.160156 257.082031 45.058594 254.75 C 43.957031 252.421875 42.914062 250.066406 41.925781 247.683594 C 40.9375 245.300781 40.011719 242.898438 39.144531 240.472656 C 38.273438 238.042969 37.464844 235.597656 36.71875 233.132812 C 35.96875 230.664062 35.28125 228.179688 34.65625 225.679688 C 34.027344 223.179688 33.464844 220.667969 32.960938 218.136719 C 32.457031 215.609375 32.015625 213.070312 31.640625 210.519531 C 31.261719 207.972656 30.945312 205.414062 30.691406 202.847656 C 30.441406 200.285156 30.25 197.714844 30.125 195.140625 C 29.996094 192.566406 29.933594 189.988281 29.933594 187.410156 C 29.933594 184.832031 29.996094 182.257812 30.125 179.683594 C 30.25 177.109375 30.441406 174.539062 30.691406 171.972656 C 30.945312 169.410156 31.261719 166.851562 31.640625 164.300781 C 32.015625 161.75 32.457031 159.210938 32.960938 156.683594 C 33.464844 154.15625 34.027344 151.640625 34.65625 149.140625 C 35.28125 146.640625 35.96875 144.15625 36.71875 141.691406 C 37.464844 139.226562 38.273438 136.777344 39.144531 134.351562 C 40.011719 131.925781 40.9375 129.519531 41.925781 127.136719 C 42.914062 124.757812 43.957031 122.402344 45.058594 120.070312 C 46.160156 117.742188 47.320312 115.441406 48.535156 113.167969 C 49.75 110.894531 51.019531 108.652344 52.347656 106.441406 C 53.671875 104.230469 55.050781 102.050781 56.484375 99.910156 C 57.914062 97.765625 59.398438 95.660156 60.9375 93.589844 C 62.472656 91.519531 64.058594 89.488281 65.691406 87.496094 C 67.328125 85.5 69.011719 83.550781 70.742188 81.640625 C 72.476562 79.730469 74.253906 77.863281 76.074219 76.042969 C 77.898438 74.21875 79.765625 72.441406 81.675781 70.710938 C 83.585938 68.980469 85.535156 67.296875 87.53125 65.664062 C 89.523438 64.027344 91.554688 62.441406 93.625 60.90625 C 95.695312 59.371094 97.804688 57.886719 99.949219 56.453125 C 102.089844 55.023438 104.269531 53.644531 106.480469 52.320312 C 108.691406 50.992188 110.933594 49.722656 113.207031 48.507812 C 115.480469 47.292969 117.785156 46.136719 120.113281 45.03125 C 122.445312 43.929688 124.800781 42.886719 127.183594 41.898438 C 129.566406 40.914062 131.96875 39.988281 134.398438 39.117188 C 136.824219 38.25 139.273438 37.441406 141.738281 36.691406 C 144.207031 35.945312 146.691406 35.257812 149.191406 34.632812 C 151.691406 34.003906 154.207031 33.441406 156.734375 32.9375 C 159.265625 32.433594 161.804688 31.996094 164.355469 31.617188 C 166.90625 31.238281 169.460938 30.921875 172.027344 30.667969 C 174.59375 30.417969 177.164062 30.226562 179.738281 30.101562 C 182.316406 29.972656 184.890625 29.910156 187.46875 29.910156 C 190.046875 29.910156 192.625 29.972656 195.199219 30.101562 C 197.773438 30.226562 200.34375 30.417969 202.910156 30.667969 C 205.476562 30.921875 208.035156 31.238281 210.585938 31.617188 C 213.136719 31.996094 215.675781 32.433594 218.203125 32.9375 C 220.730469 33.441406 223.246094 34.003906 225.746094 34.632812 C 228.25 35.257812 230.734375 35.945312 233.199219 36.691406 C 235.667969 37.441406 238.113281 38.25 240.542969 39.117188 C 242.96875 39.988281 245.375 40.914062 247.757812 41.898438 C 250.136719 42.886719 252.496094 43.929688 254.824219 45.03125 C 257.15625 46.136719 259.457031 47.292969 261.730469 48.507812 C 264.003906 49.722656 266.25 50.992188 268.460938 52.320312 C 270.671875 53.644531 272.847656 55.023438 274.992188 56.453125 C 277.136719 57.886719 279.242188 59.371094 281.3125 60.90625 C 283.386719 62.441406 285.417969 64.027344 287.410156 65.664062 C 289.402344 67.296875 291.355469 68.980469 293.265625 70.710938 C 295.175781 72.441406 297.042969 74.21875 298.863281 76.042969 C 300.6875 77.863281 302.464844 79.730469 304.195312 81.640625 C 305.929688 83.550781 307.609375 85.5 309.246094 87.496094 C 310.882812 89.488281 312.46875 91.519531 314.003906 93.589844 C 315.539062 95.660156 317.023438 97.765625 318.457031 99.910156 C 319.886719 102.050781 321.265625 104.230469 322.59375 106.441406 C 323.917969 108.652344 325.1875 110.894531 326.402344 113.167969 C 327.621094 115.441406 328.777344 117.742188 329.878906 120.070312 C 330.984375 122.402344 332.027344 124.757812 333.015625 127.136719 C 334 129.519531 334.929688 131.925781 335.796875 134.351562 C 336.664062 136.777344 337.472656 139.226562 338.222656 141.691406 C 338.972656 144.15625 339.660156 146.640625 340.285156 149.140625 C 340.910156 151.640625 341.476562 154.15625 341.980469 156.683594 C 342.480469 159.210938 342.921875 161.75 343.300781 164.300781 C 343.679688 166.851562 343.996094 169.410156 344.246094 171.972656 C 344.5 174.539062 344.691406 177.109375 344.816406 179.683594 C 344.941406 182.257812 345.007812 184.832031 345.007812 187.410156 Z M 345.007812 187.410156 "/>
<path style=" stroke:none;fill-rule:nonzero;fill:rgb(100%,100%,100%);fill-opacity:1;" d="M 143.28125 169.257812 L 187.46875 125.078125 L 231.683594 169.28125 L 257.398438 143.574219 L 187.46875 73.660156 L 117.566406 143.550781 Z M 99.40625 161.703125 L 125.121094 187.410156 L 99.40625 213.117188 L 73.695312 187.410156 Z M 143.28125 205.5625 L 187.46875 249.742188 L 231.683594 205.542969 L 257.410156 231.234375 L 257.398438 231.25 L 187.46875 301.160156 L 117.566406 231.273438 L 117.527344 231.238281 Z M 301.25 187.414062 L 275.535156 213.121094 L 249.820312 187.414062 L 275.535156 161.707031 Z M 301.25 187.414062 "/>
<path style=" stroke:none;fill-rule:nonzero;fill:rgb(100%,100%,100%);fill-opacity:1;" d="M 213.550781 187.398438 L 213.5625 187.398438 L 187.46875 161.3125 L 161.363281 187.410156 L 161.398438 187.445312 L 187.46875 213.511719 L 213.574219 187.410156 Z M 213.550781 187.398438 "/>
</g>
</svg>
