<?xml version="1.0" encoding="UTF-8"?>
<svg xmlns="http://www.w3.org/2000/svg" xmlns:xlink="http://www.w3.org/1999/xlink" width="375pt" height="374.999991pt" viewBox="0 0 375 374.999991" version="1.2">
<defs>
<clipPath id="clip1">
  <path d="M 19.664062 20.578125 L 232.5 20.578125 L 232.5 233.414062 L 19.664062 233.414062 Z M 19.664062 20.578125 "/>
</clipPath>
<clipPath id="clip2">
  <path d="M 232.5 126.996094 C 232.5 185.765625 184.851562 233.414062 126.082031 233.414062 C 67.308594 233.414062 19.664062 185.765625 19.664062 126.996094 C 19.664062 68.222656 67.308594 20.578125 126.082031 20.578125 C 184.855469 20.578125 232.5 68.222656 232.5 126.996094 Z M 232.5 126.996094 "/>
</clipPath>
<clipPath id="clip3">
  <path d="M 54.15625 61.324219 L 197.917969 61.324219 L 197.917969 215 L 54.15625 215 Z M 54.15625 61.324219 "/>
</clipPath>
<clipPath id="clip4">
  <path d="M 136.578125 137.488281 L 349.578125 137.488281 L 349.578125 350.488281 L 136.578125 350.488281 Z M 136.578125 137.488281 "/>
</clipPath>
</defs>
<g id="surface1">
<g clip-path="url(#clip1)" clip-rule="nonzero">
<g clip-path="url(#clip2)" clip-rule="nonzero">
<path style=" stroke:none;fill-rule:nonzero;fill:rgb(18.818665%,77.648926%,49.409485%);fill-opacity:1;" d="M 19.664062 20.578125 L 232.5 20.578125 L 232.5 233.414062 L 19.664062 233.414062 Z M 19.664062 20.578125 "/>
</g>
</g>
<g clip-path="url(#clip3)" clip-rule="nonzero">
<path style=" stroke:none;fill-rule:nonzero;fill:rgb(100%,100%,100%);fill-opacity:1;" d="M 193.742188 61.445312 C 193.324219 61.445312 192.960938 61.511719 192.59375 61.5625 C 191.136719 61.777344 189.359375 62.25 186.019531 63.144531 C 182.910156 63.964844 175.976562 65.542969 170.914062 66.5625 C 157.515625 69.222656 152.136719 72.40625 146.183594 76.871094 L 146.175781 76.875 C 137.125 83.6875 133.105469 93.042969 133.105469 103.425781 C 133.105469 113.789062 138.800781 120.066406 139.320312 120.628906 C 137.441406 124.941406 135.519531 128.785156 133.765625 134.089844 C 129.773438 144.839844 126.820312 153.464844 124.839844 159.976562 L 124.832031 159.984375 C 123.550781 164.253906 122.449219 167.632812 121.398438 170.820312 C 120.535156 167.746094 119.726562 164.917969 118.390625 159.710938 L 118.378906 159.664062 L 118.363281 159.625 C 106.726562 118.710938 94.546875 93.917969 82.902344 81.128906 C 76.550781 74.097656 68.242188 67.625 61.789062 65.449219 C 60.867188 65.132812 60.121094 64.894531 59.234375 64.769531 C 58.785156 64.707031 58.296875 64.640625 57.53125 64.796875 C 56.769531 64.949219 55.46875 65.597656 54.871094 66.820312 C 54.273438 68.046875 54.5 69.089844 54.691406 69.699219 C 54.882812 70.308594 55.113281 70.691406 55.34375 71.058594 C 55.8125 71.796875 56.347656 72.4375 57.039062 73.21875 C 68.644531 86.449219 84.503906 109.972656 97.121094 162.222656 L 97.136719 162.277344 L 97.148438 162.328125 C 99.054688 169.242188 103.421875 187.503906 104.765625 194.292969 L 104.765625 194.300781 C 105.546875 198.230469 106.367188 202.109375 107.054688 205.175781 C 107.394531 206.710938 107.703125 208.042969 107.960938 209.085938 C 108.21875 210.132812 108.351562 210.726562 108.632812 211.480469 L 108.667969 211.566406 L 108.707031 211.652344 C 109.066406 212.46875 109.386719 212.84375 109.894531 213.371094 C 110.398438 213.898438 111.011719 214.53125 112.339844 214.882812 L 112.773438 214.996094 L 127.769531 214.996094 C 129.269531 214.996094 130.457031 214.210938 131.167969 213.5 C 131.878906 212.785156 132.320312 212.050781 132.722656 211.257812 C 133.53125 209.679688 134.148438 207.828125 134.765625 205.660156 C 136 201.328125 137.148438 195.789062 138.371094 190.234375 C 140.816406 179.132812 143.515625 168.042969 146.84375 156.351562 L 146.847656 156.351562 L 146.847656 156.34375 C 149.675781 146.34375 152.210938 138.015625 154.4375 132.015625 C 155.554688 129.019531 156.59375 126.605469 157.5 124.921875 C 158.371094 123.296875 159.179688 122.496094 159.207031 122.453125 C 159.464844 122.375 159.863281 122.253906 160.339844 122.136719 C 161.300781 121.898438 162.574219 121.632812 163.847656 121.421875 C 174.910156 119.574219 180.648438 115.792969 186.917969 107.957031 C 191.410156 102.359375 193.546875 95.757812 194.589844 83.113281 L 194.589844 83.105469 C 195.113281 76.601562 195.34375 75.300781 196.53125 71.507812 L 196.535156 71.492188 L 196.535156 71.480469 C 196.945312 70.132812 197.289062 68.859375 197.53125 67.835938 C 197.648438 67.320312 197.746094 66.882812 197.816406 66.46875 C 197.851562 66.261719 197.882812 66.0625 197.902344 65.816406 C 197.925781 65.566406 198.085938 65.46875 197.785156 64.394531 L 197.738281 64.25 L 197.683594 64.097656 C 197.449219 63.484375 196.386719 62.097656 195.214844 61.703125 C 194.628906 61.507812 194.160156 61.441406 193.742188 61.445312 Z M 190.085938 69.171875 C 190.054688 69.285156 190.039062 69.359375 190.007812 69.472656 C 190.007812 69.472656 190.007812 69.480469 190.007812 69.480469 C 190.003906 69.488281 190.003906 69.492188 190 69.5 C 188.742188 73.535156 188.3125 75.945312 187.777344 82.5625 L 187.785156 82.554688 C 186.785156 94.6875 185.191406 99.207031 181.597656 103.691406 L 181.589844 103.691406 C 175.773438 110.960938 172.886719 112.992188 162.722656 114.691406 C 161.265625 114.933594 159.863281 115.230469 158.699219 115.519531 C 158.117188 115.664062 157.59375 115.800781 157.125 115.953125 C 156.65625 116.101562 156.371094 116.128906 155.597656 116.609375 L 155.566406 116.632812 L 155.539062 116.644531 C 153.664062 117.867188 152.632812 119.550781 151.484375 121.6875 C 150.335938 123.824219 149.214844 126.472656 148.035156 129.644531 C 145.679688 135.988281 143.121094 144.421875 140.273438 154.492188 L 140.28125 154.488281 C 136.90625 166.335938 134.164062 177.566406 131.695312 188.769531 C 130.464844 194.371094 129.3125 199.871094 128.195312 203.789062 C 127.636719 205.75 127.066406 207.328125 126.648438 208.148438 C 126.636719 208.167969 126.644531 208.15625 126.632812 208.175781 L 114.789062 208.175781 C 114.707031 207.878906 114.703125 207.886719 114.597656 207.453125 C 114.355469 206.484375 114.050781 205.191406 113.714844 203.691406 C 113.042969 200.6875 112.238281 196.84375 111.46875 192.96875 C 110.039062 185.746094 105.777344 167.960938 103.757812 160.625 L 103.75 160.601562 C 93.347656 117.523438 80.605469 93.484375 69.589844 78.328125 C 72.472656 80.589844 75.460938 83.070312 77.839844 85.707031 L 77.847656 85.710938 L 77.855469 85.71875 C 88.09375 96.96875 100.304688 121.089844 111.792969 161.484375 C 113.664062 168.769531 115.054688 173.925781 116.082031 177.296875 C 116.601562 178.988281 117.015625 180.222656 117.429688 181.199219 C 117.640625 181.6875 117.8125 182.097656 118.210938 182.652344 C 118.410156 182.929688 118.640625 183.273438 119.257812 183.6875 C 119.859375 184.085938 121.21875 184.441406 122.40625 184.046875 C 123.941406 183.507812 124.042969 182.949219 124.234375 182.671875 C 124.433594 182.378906 124.539062 182.171875 124.648438 181.953125 C 124.867188 181.519531 125.058594 181.0625 125.28125 180.507812 C 125.726562 179.394531 126.265625 177.917969 126.886719 176.097656 C 128.132812 172.457031 129.714844 167.496094 131.375 161.957031 C 133.304688 155.617188 136.21875 147.074219 140.207031 136.339844 L 140.234375 136.289062 L 140.253906 136.226562 C 145.84375 119.324219 152.371094 108.050781 157.433594 101.039062 C 162.496094 94.027344 165.863281 91.457031 165.863281 91.457031 C 166.242188 91.1875 166.550781 90.851562 166.789062 90.457031 C 167.03125 90.058594 167.1875 89.632812 167.253906 89.171875 C 167.320312 88.714844 167.292969 88.261719 167.175781 87.8125 C 167.054688 87.363281 166.855469 86.957031 166.570312 86.589844 C 166.285156 86.222656 165.9375 85.929688 165.535156 85.703125 C 165.128906 85.476562 164.695312 85.339844 164.230469 85.292969 C 163.769531 85.242188 163.316406 85.285156 162.875 85.421875 C 162.429688 85.558594 162.03125 85.773438 161.675781 86.074219 C 161.675781 86.074219 157.359375 89.476562 151.890625 97.046875 C 148.992188 101.0625 145.710938 106.527344 142.394531 113.179688 C 141.171875 110.984375 139.933594 107.816406 139.933594 103.425781 C 139.933594 94.671875 142.757812 87.992188 150.285156 82.328125 C 156 78.042969 159.453125 75.792969 172.253906 73.25 L 172.257812 73.25 C 177.476562 72.203125 184.34375 70.644531 187.773438 69.738281 L 187.785156 69.738281 C 189.101562 69.386719 189.214844 69.394531 190.085938 69.171875 Z M 190.085938 69.171875 "/>
</g>
<g clip-path="url(#clip4)" clip-rule="nonzero">
<path style=" stroke:none;fill-rule:nonzero;fill:rgb(94.119263%,72.549438%,4.309082%);fill-opacity:1;" d="M 349.707031 244.054688 C 349.707031 245.796875 349.664062 247.542969 349.578125 249.285156 C 349.492188 251.023438 349.363281 252.765625 349.191406 254.5 C 349.019531 256.234375 348.808594 257.964844 348.550781 259.691406 C 348.296875 261.414062 347.996094 263.132812 347.65625 264.84375 C 347.316406 266.554688 346.933594 268.257812 346.511719 269.949219 C 346.089844 271.640625 345.621094 273.320312 345.117188 274.988281 C 344.609375 276.65625 344.0625 278.3125 343.476562 279.953125 C 342.886719 281.597656 342.261719 283.222656 341.59375 284.835938 C 340.925781 286.445312 340.21875 288.039062 339.472656 289.617188 C 338.726562 291.191406 337.945312 292.75 337.121094 294.289062 C 336.300781 295.828125 335.441406 297.34375 334.542969 298.839844 C 333.648438 300.335938 332.714844 301.808594 331.746094 303.257812 C 330.777344 304.707031 329.773438 306.132812 328.734375 307.535156 C 327.695312 308.9375 326.621094 310.308594 325.515625 311.660156 C 324.410156 313.007812 323.269531 314.328125 322.101562 315.617188 C 320.929688 316.910156 319.726562 318.171875 318.492188 319.40625 C 317.261719 320.640625 315.996094 321.84375 314.707031 323.011719 C 313.414062 324.183594 312.09375 325.324219 310.746094 326.429688 C 309.398438 327.535156 308.023438 328.609375 306.621094 329.648438 C 305.21875 330.6875 303.796875 331.691406 302.34375 332.660156 C 300.894531 333.628906 299.421875 334.5625 297.925781 335.457031 C 296.429688 336.355469 294.914062 337.214844 293.375 338.035156 C 291.835938 338.859375 290.28125 339.640625 288.703125 340.386719 C 287.125 341.132812 285.53125 341.839844 283.921875 342.507812 C 282.308594 343.175781 280.683594 343.800781 279.042969 344.390625 C 277.398438 344.976562 275.742188 345.523438 274.074219 346.03125 C 272.40625 346.535156 270.726562 347 269.035156 347.425781 C 267.34375 347.847656 265.640625 348.230469 263.929688 348.570312 C 262.21875 348.910156 260.503906 349.210938 258.777344 349.464844 C 257.050781 349.722656 255.320312 349.933594 253.585938 350.105469 C 251.851562 350.277344 250.113281 350.40625 248.371094 350.492188 C 246.628906 350.578125 244.886719 350.617188 243.140625 350.617188 C 241.398438 350.617188 239.652344 350.578125 237.910156 350.492188 C 236.171875 350.40625 234.429688 350.277344 232.695312 350.105469 C 230.960938 349.933594 229.230469 349.722656 227.503906 349.464844 C 225.78125 349.210938 224.0625 348.910156 222.351562 348.570312 C 220.640625 348.230469 218.941406 347.847656 217.246094 347.425781 C 215.554688 347 213.875 346.535156 212.207031 346.03125 C 210.539062 345.523438 208.882812 344.976562 207.242188 344.390625 C 205.597656 343.800781 203.972656 343.175781 202.359375 342.507812 C 200.75 341.839844 199.15625 341.132812 197.578125 340.386719 C 196.003906 339.640625 194.445312 338.859375 192.90625 338.035156 C 191.367188 337.214844 189.851562 336.355469 188.355469 335.457031 C 186.859375 334.5625 185.386719 333.628906 183.9375 332.660156 C 182.488281 331.691406 181.0625 330.6875 179.660156 329.648438 C 178.257812 328.609375 176.886719 327.535156 175.535156 326.429688 C 174.1875 325.324219 172.867188 324.183594 171.578125 323.011719 C 170.285156 321.84375 169.023438 320.640625 167.789062 319.40625 C 166.554688 318.171875 165.351562 316.910156 164.183594 315.617188 C 163.011719 314.328125 161.871094 313.007812 160.765625 311.660156 C 159.660156 310.308594 158.585938 308.9375 157.546875 307.535156 C 156.507812 306.132812 155.503906 304.707031 154.535156 303.257812 C 153.566406 301.808594 152.632812 300.335938 151.738281 298.839844 C 150.839844 297.34375 149.980469 295.828125 149.160156 294.289062 C 148.335938 292.75 147.554688 291.191406 146.808594 289.617188 C 146.0625 288.039062 145.355469 286.445312 144.6875 284.835938 C 144.019531 283.222656 143.394531 281.597656 142.804688 279.953125 C 142.21875 278.3125 141.671875 276.65625 141.164062 274.988281 C 140.660156 273.320312 140.195312 271.640625 139.769531 269.949219 C 139.347656 268.257812 138.964844 266.554688 138.625 264.84375 C 138.285156 263.132812 137.984375 261.414062 137.730469 259.691406 C 137.472656 257.964844 137.261719 256.234375 137.089844 254.5 C 136.917969 252.765625 136.789062 251.023438 136.703125 249.285156 C 136.621094 247.542969 136.578125 245.796875 136.578125 244.054688 C 136.578125 242.3125 136.621094 240.566406 136.703125 238.824219 C 136.789062 237.082031 136.917969 235.34375 137.089844 233.609375 C 137.261719 231.875 137.472656 230.144531 137.730469 228.417969 C 137.984375 226.691406 138.285156 224.976562 138.625 223.265625 C 138.964844 221.554688 139.347656 219.851562 139.769531 218.160156 C 140.195312 216.46875 140.660156 214.789062 141.164062 213.121094 C 141.671875 211.453125 142.21875 209.796875 142.804688 208.152344 C 143.394531 206.511719 144.019531 204.886719 144.6875 203.273438 C 145.355469 201.664062 146.0625 200.070312 146.808594 198.492188 C 147.554688 196.914062 148.335938 195.359375 149.160156 193.820312 C 149.980469 192.28125 150.839844 190.765625 151.738281 189.269531 C 152.632812 187.773438 153.566406 186.300781 154.535156 184.851562 C 155.503906 183.402344 156.507812 181.976562 157.546875 180.574219 C 158.585938 179.171875 159.660156 177.800781 160.765625 176.449219 C 161.871094 175.101562 163.011719 173.78125 164.183594 172.488281 C 165.351562 171.199219 166.554688 169.933594 167.789062 168.703125 C 169.023438 167.46875 170.285156 166.265625 171.578125 165.09375 C 172.867188 163.925781 174.1875 162.785156 175.535156 161.679688 C 176.886719 160.574219 178.257812 159.5 179.660156 158.460938 C 181.0625 157.421875 182.488281 156.417969 183.9375 155.449219 C 185.386719 154.480469 186.859375 153.546875 188.355469 152.652344 C 189.851562 151.753906 191.367188 150.894531 192.90625 150.074219 C 194.445312 149.25 196.003906 148.46875 197.578125 147.722656 C 199.15625 146.976562 200.75 146.269531 202.359375 145.601562 C 203.972656 144.933594 205.597656 144.308594 207.242188 143.71875 C 208.882812 143.132812 210.539062 142.585938 212.207031 142.078125 C 213.875 141.574219 215.554688 141.109375 217.246094 140.683594 C 218.941406 140.261719 220.640625 139.878906 222.351562 139.539062 C 224.0625 139.199219 225.78125 138.898438 227.503906 138.644531 C 229.230469 138.386719 230.960938 138.175781 232.695312 138.003906 C 234.429688 137.832031 236.171875 137.703125 237.910156 137.617188 C 239.652344 137.53125 241.398438 137.488281 243.140625 137.488281 C 244.886719 137.488281 246.628906 137.53125 248.371094 137.617188 C 250.113281 137.703125 251.851562 137.832031 253.585938 138.003906 C 255.320312 138.175781 257.050781 138.386719 258.777344 138.644531 C 260.503906 138.898438 262.21875 139.199219 263.929688 139.539062 C 265.640625 139.878906 267.34375 140.261719 269.035156 140.683594 C 270.726562 141.109375 272.40625 141.574219 274.074219 142.078125 C 275.742188 142.585938 277.398438 143.132812 279.042969 143.71875 C 280.683594 144.308594 282.308594 144.933594 283.921875 145.601562 C 285.53125 146.269531 287.125 146.976562 288.703125 147.722656 C 290.28125 148.46875 291.835938 149.25 293.375 150.074219 C 294.914062 150.894531 296.429688 151.753906 297.925781 152.652344 C 299.421875 153.546875 300.894531 154.480469 302.34375 155.449219 C 303.796875 156.417969 305.21875 157.421875 306.621094 158.460938 C 308.023438 159.5 309.398438 160.574219 310.746094 161.679688 C 312.09375 162.785156 313.414062 163.925781 314.707031 165.09375 C 315.996094 166.265625 317.261719 167.46875 318.492188 168.703125 C 319.726562 169.933594 320.929688 171.199219 322.101562 172.488281 C 323.269531 173.78125 324.410156 175.101562 325.515625 176.449219 C 326.621094 177.800781 327.695312 179.171875 328.734375 180.574219 C 329.773438 181.976562 330.777344 183.402344 331.746094 184.851562 C 332.714844 186.300781 333.648438 187.773438 334.542969 189.269531 C 335.441406 190.765625 336.300781 192.28125 337.121094 193.820312 C 337.945312 195.359375 338.726562 196.914062 339.472656 198.492188 C 340.21875 200.070312 340.925781 201.664062 341.59375 203.273438 C 342.261719 204.886719 342.886719 206.511719 343.476562 208.152344 C 344.0625 209.796875 344.609375 211.453125 345.117188 213.121094 C 345.621094 214.789062 346.089844 216.46875 346.511719 218.160156 C 346.933594 219.851562 347.316406 221.554688 347.65625 223.265625 C 347.996094 224.976562 348.296875 226.691406 348.550781 228.417969 C 348.808594 230.144531 349.019531 231.875 349.191406 233.609375 C 349.363281 235.34375 349.492188 237.082031 349.578125 238.824219 C 349.664062 240.566406 349.707031 242.3125 349.707031 244.054688 Z M 349.707031 244.054688 "/>
</g>
<path style=" stroke:none;fill-rule:evenodd;fill:rgb(100%,100%,100%);fill-opacity:1;" d="M 197.789062 216.988281 L 243.183594 171.589844 L 261.285156 189.691406 L 215.890625 235.089844 Z M 197.820312 271.234375 L 270.371094 198.6875 L 288.46875 216.789062 L 215.921875 289.335938 Z M 297.503906 225.871094 L 224.953125 298.417969 L 243.054688 316.519531 L 315.605469 243.972656 Z M 170.675781 244.09375 L 188.777344 225.992188 L 206.878906 244.09375 L 188.777344 262.195312 Z M 170.675781 244.09375 "/>
</g>
</svg>
