<?xml version="1.0" encoding="UTF-8"?>
<svg xmlns="http://www.w3.org/2000/svg" xmlns:xlink="http://www.w3.org/1999/xlink" width="375pt" height="374.999991pt" viewBox="0 0 375 374.999991" version="1.2">
<defs>
<clipPath id="clip1">
  <path d="M 19.664062 20.578125 L 232.5 20.578125 L 232.5 233.414062 L 19.664062 233.414062 Z M 19.664062 20.578125 "/>
</clipPath>
<clipPath id="clip2">
  <path d="M 232.5 126.996094 C 232.5 185.765625 184.851562 233.414062 126.082031 233.414062 C 67.308594 233.414062 19.664062 185.765625 19.664062 126.996094 C 19.664062 68.222656 67.308594 20.578125 126.082031 20.578125 C 184.855469 20.578125 232.5 68.222656 232.5 126.996094 Z M 232.5 126.996094 "/>
</clipPath>
<clipPath id="clip3">
  <path d="M 54.15625 61.324219 L 197.917969 61.324219 L 197.917969 215 L 54.15625 215 Z M 54.15625 61.324219 "/>
</clipPath>
</defs>
<g id="surface1">
<rect x="0" y="0" width="375" height="374.999991" style="fill:rgb(100%,100%,100%);fill-opacity:1;stroke:none;"/>
<rect x="0" y="0" width="375" height="374.999991" style="fill:rgb(100%,100%,100%);fill-opacity:1;stroke:none;"/>
<rect x="0" y="0" width="375" height="374.999991" style="fill:rgb(100%,100%,100%);fill-opacity:1;stroke:none;"/>
<g clip-path="url(#clip1)" clip-rule="nonzero">
<g clip-path="url(#clip2)" clip-rule="nonzero">
<path style=" stroke:none;fill-rule:nonzero;fill:rgb(18.818665%,77.648926%,49.409485%);fill-opacity:1;" d="M 19.664062 20.578125 L 232.5 20.578125 L 232.5 233.414062 L 19.664062 233.414062 Z M 19.664062 20.578125 "/>
</g>
</g>
<g clip-path="url(#clip3)" clip-rule="nonzero">
<path style=" stroke:none;fill-rule:nonzero;fill:rgb(100%,100%,100%);fill-opacity:1;" d="M 193.742188 61.445312 C 193.324219 61.445312 192.960938 61.511719 192.59375 61.5625 C 191.136719 61.777344 189.359375 62.25 186.019531 63.144531 C 182.910156 63.964844 175.976562 65.542969 170.914062 66.5625 C 157.515625 69.222656 152.136719 72.40625 146.183594 76.871094 L 146.175781 76.875 C 137.125 83.6875 133.105469 93.042969 133.105469 103.425781 C 133.105469 113.789062 138.800781 120.066406 139.320312 120.628906 C 137.441406 124.941406 135.519531 128.785156 133.765625 134.089844 C 129.773438 144.839844 126.820312 153.464844 124.839844 159.976562 L 124.832031 159.984375 C 123.550781 164.253906 122.449219 167.632812 121.398438 170.820312 C 120.535156 167.746094 119.726562 164.917969 118.390625 159.710938 L 118.378906 159.664062 L 118.363281 159.625 C 106.726562 118.710938 94.546875 93.917969 82.902344 81.128906 C 76.550781 74.097656 68.242188 67.625 61.789062 65.449219 C 60.867188 65.132812 60.121094 64.894531 59.234375 64.769531 C 58.785156 64.707031 58.296875 64.640625 57.53125 64.796875 C 56.769531 64.949219 55.46875 65.597656 54.871094 66.820312 C 54.273438 68.046875 54.5 69.089844 54.691406 69.699219 C 54.882812 70.308594 55.113281 70.691406 55.34375 71.058594 C 55.8125 71.796875 56.347656 72.4375 57.039062 73.21875 C 68.644531 86.449219 84.503906 109.972656 97.121094 162.222656 L 97.136719 162.277344 L 97.148438 162.328125 C 99.054688 169.242188 103.421875 187.503906 104.765625 194.292969 L 104.765625 194.300781 C 105.546875 198.230469 106.367188 202.109375 107.054688 205.175781 C 107.394531 206.710938 107.703125 208.042969 107.960938 209.085938 C 108.21875 210.132812 108.351562 210.726562 108.632812 211.480469 L 108.667969 211.566406 L 108.707031 211.652344 C 109.066406 212.46875 109.386719 212.84375 109.894531 213.371094 C 110.398438 213.898438 111.011719 214.53125 112.339844 214.882812 L 112.773438 214.996094 L 127.769531 214.996094 C 129.269531 214.996094 130.457031 214.210938 131.167969 213.5 C 131.878906 212.785156 132.320312 212.050781 132.722656 211.257812 C 133.53125 209.679688 134.148438 207.828125 134.765625 205.660156 C 136 201.328125 137.148438 195.789062 138.371094 190.234375 C 140.816406 179.132812 143.515625 168.042969 146.84375 156.351562 L 146.847656 156.351562 L 146.847656 156.34375 C 149.675781 146.34375 152.210938 138.015625 154.4375 132.015625 C 155.554688 129.019531 156.59375 126.605469 157.5 124.921875 C 158.371094 123.296875 159.179688 122.496094 159.207031 122.453125 C 159.464844 122.375 159.863281 122.253906 160.339844 122.136719 C 161.300781 121.898438 162.574219 121.632812 163.847656 121.421875 C 174.910156 119.574219 180.648438 115.792969 186.917969 107.957031 C 191.410156 102.359375 193.546875 95.757812 194.589844 83.113281 L 194.589844 83.105469 C 195.113281 76.601562 195.34375 75.300781 196.53125 71.507812 L 196.535156 71.492188 L 196.535156 71.480469 C 196.945312 70.132812 197.289062 68.859375 197.53125 67.835938 C 197.648438 67.320312 197.746094 66.882812 197.816406 66.46875 C 197.851562 66.261719 197.882812 66.0625 197.902344 65.816406 C 197.925781 65.566406 198.085938 65.46875 197.785156 64.394531 L 197.738281 64.25 L 197.683594 64.097656 C 197.449219 63.484375 196.386719 62.097656 195.214844 61.703125 C 194.628906 61.507812 194.160156 61.441406 193.742188 61.445312 Z M 190.085938 69.171875 C 190.054688 69.285156 190.039062 69.359375 190.007812 69.472656 C 190.007812 69.472656 190.007812 69.480469 190.007812 69.480469 C 190.003906 69.488281 190.003906 69.492188 190 69.5 C 188.742188 73.535156 188.3125 75.945312 187.777344 82.5625 L 187.785156 82.554688 C 186.785156 94.6875 185.191406 99.207031 181.597656 103.691406 L 181.589844 103.691406 C 175.773438 110.960938 172.886719 112.992188 162.722656 114.691406 C 161.265625 114.933594 159.863281 115.230469 158.699219 115.519531 C 158.117188 115.664062 157.59375 115.800781 157.125 115.953125 C 156.65625 116.101562 156.371094 116.128906 155.597656 116.609375 L 155.566406 116.632812 L 155.539062 116.644531 C 153.664062 117.867188 152.632812 119.550781 151.484375 121.6875 C 150.335938 123.824219 149.214844 126.472656 148.035156 129.644531 C 145.679688 135.988281 143.121094 144.421875 140.273438 154.492188 L 140.28125 154.488281 C 136.90625 166.335938 134.164062 177.566406 131.695312 188.769531 C 130.464844 194.371094 129.3125 199.871094 128.195312 203.789062 C 127.636719 205.75 127.066406 207.328125 126.648438 208.148438 C 126.636719 208.167969 126.644531 208.15625 126.632812 208.175781 L 114.789062 208.175781 C 114.707031 207.878906 114.703125 207.886719 114.597656 207.453125 C 114.355469 206.484375 114.050781 205.191406 113.714844 203.691406 C 113.042969 200.6875 112.238281 196.84375 111.46875 192.96875 C 110.039062 185.746094 105.777344 167.960938 103.757812 160.625 L 103.75 160.601562 C 93.347656 117.523438 80.605469 93.484375 69.589844 78.328125 C 72.472656 80.589844 75.460938 83.070312 77.839844 85.707031 L 77.847656 85.710938 L 77.855469 85.71875 C 88.09375 96.96875 100.304688 121.089844 111.792969 161.484375 C 113.664062 168.769531 115.054688 173.925781 116.082031 177.296875 C 116.601562 178.988281 117.015625 180.222656 117.429688 181.199219 C 117.640625 181.6875 117.8125 182.097656 118.210938 182.652344 C 118.410156 182.929688 118.640625 183.273438 119.257812 183.6875 C 119.859375 184.085938 121.21875 184.441406 122.40625 184.046875 C 123.941406 183.507812 124.042969 182.949219 124.234375 182.671875 C 124.433594 182.378906 124.539062 182.171875 124.648438 181.953125 C 124.867188 181.519531 125.058594 181.0625 125.28125 180.507812 C 125.726562 179.394531 126.265625 177.917969 126.886719 176.097656 C 128.132812 172.457031 129.714844 167.496094 131.375 161.957031 C 133.304688 155.617188 136.21875 147.074219 140.207031 136.339844 L 140.234375 136.289062 L 140.253906 136.226562 C 145.84375 119.324219 152.371094 108.050781 157.433594 101.039062 C 162.496094 94.027344 165.863281 91.457031 165.863281 91.457031 C 166.242188 91.1875 166.550781 90.851562 166.789062 90.457031 C 167.03125 90.058594 167.1875 89.632812 167.253906 89.171875 C 167.320312 88.714844 167.292969 88.261719 167.175781 87.8125 C 167.054688 87.363281 166.855469 86.957031 166.570312 86.589844 C 166.285156 86.222656 165.9375 85.929688 165.535156 85.703125 C 165.128906 85.476562 164.695312 85.339844 164.230469 85.292969 C 163.769531 85.242188 163.316406 85.285156 162.875 85.421875 C 162.429688 85.558594 162.03125 85.773438 161.675781 86.074219 C 161.675781 86.074219 157.359375 89.476562 151.890625 97.046875 C 148.992188 101.0625 145.710938 106.527344 142.394531 113.179688 C 141.171875 110.984375 139.933594 107.816406 139.933594 103.425781 C 139.933594 94.671875 142.757812 87.992188 150.285156 82.328125 C 156 78.042969 159.453125 75.792969 172.253906 73.25 L 172.257812 73.25 C 177.476562 72.203125 184.34375 70.644531 187.773438 69.738281 L 187.785156 69.738281 C 189.101562 69.386719 189.214844 69.394531 190.085938 69.171875 Z M 190.085938 69.171875 "/>
</g>
<path style=" stroke:none;fill-rule:nonzero;fill:rgb(94.119263%,72.549438%,4.309082%);fill-opacity:1;" d="M 349.613281 243.839844 C 349.613281 245.578125 349.570312 247.316406 349.484375 249.054688 C 349.398438 250.792969 349.269531 252.523438 349.101562 254.253906 C 348.929688 255.984375 348.714844 257.710938 348.460938 259.429688 C 348.203125 261.152344 347.90625 262.863281 347.566406 264.570312 C 347.226562 266.273438 346.847656 267.972656 346.421875 269.65625 C 346 271.34375 345.535156 273.019531 345.03125 274.683594 C 344.523438 276.347656 343.976562 278 343.390625 279.636719 C 342.804688 281.273438 342.175781 282.894531 341.511719 284.5 C 340.84375 286.109375 340.136719 287.695312 339.394531 289.269531 C 338.648438 290.839844 337.867188 292.394531 337.046875 293.925781 C 336.222656 295.460938 335.367188 296.972656 334.46875 298.464844 C 333.574219 299.957031 332.644531 301.425781 331.675781 302.871094 C 330.707031 304.316406 329.703125 305.738281 328.667969 307.132812 C 327.628906 308.53125 326.558594 309.902344 325.453125 311.246094 C 324.347656 312.589844 323.210938 313.90625 322.039062 315.195312 C 320.871094 316.484375 319.671875 317.742188 318.4375 318.972656 C 317.207031 320.199219 315.945312 321.398438 314.65625 322.566406 C 313.363281 323.734375 312.046875 324.871094 310.699219 325.972656 C 309.351562 327.078125 307.980469 328.144531 306.582031 329.183594 C 305.183594 330.21875 303.757812 331.21875 302.308594 332.183594 C 300.863281 333.152344 299.390625 334.082031 297.894531 334.976562 C 296.402344 335.867188 294.886719 336.726562 293.351562 337.546875 C 291.816406 338.363281 290.257812 339.144531 288.683594 339.890625 C 287.109375 340.632812 285.519531 341.335938 283.910156 342.003906 C 282.300781 342.667969 280.675781 343.292969 279.035156 343.878906 C 277.394531 344.464844 275.742188 345.011719 274.074219 345.515625 C 272.40625 346.019531 270.730469 346.484375 269.039062 346.90625 C 267.351562 347.328125 265.652344 347.710938 263.941406 348.050781 C 262.234375 348.390625 260.519531 348.6875 258.796875 348.941406 C 257.074219 349.195312 255.34375 349.410156 253.609375 349.578125 C 251.878906 349.75 250.140625 349.878906 248.402344 349.964844 C 246.660156 350.046875 244.921875 350.089844 243.179688 350.089844 C 241.4375 350.089844 239.695312 350.046875 237.957031 349.964844 C 236.214844 349.878906 234.480469 349.75 232.746094 349.578125 C 231.011719 349.410156 229.285156 349.195312 227.5625 348.941406 C 225.839844 348.6875 224.121094 348.386719 222.414062 348.050781 C 220.707031 347.710938 219.007812 347.328125 217.316406 346.90625 C 215.628906 346.484375 213.949219 346.019531 212.28125 345.515625 C 210.613281 345.011719 208.960938 344.464844 207.320312 343.878906 C 205.679688 343.292969 204.058594 342.667969 202.449219 342.003906 C 200.839844 341.335938 199.246094 340.632812 197.671875 339.890625 C 196.097656 339.144531 194.542969 338.363281 193.003906 337.546875 C 191.46875 336.726562 189.953125 335.867188 188.460938 334.976562 C 186.964844 334.082031 185.496094 333.152344 184.046875 332.183594 C 182.597656 331.21875 181.175781 330.21875 179.773438 329.183594 C 178.375 328.144531 177.003906 327.078125 175.65625 325.972656 C 174.308594 324.871094 172.992188 323.734375 171.699219 322.566406 C 170.410156 321.398438 169.148438 320.199219 167.917969 318.972656 C 166.6875 317.742188 165.484375 316.484375 164.316406 315.195312 C 163.144531 313.90625 162.007812 312.589844 160.902344 311.246094 C 159.796875 309.902344 158.726562 308.53125 157.6875 307.132812 C 156.652344 305.738281 155.648438 304.316406 154.679688 302.871094 C 153.714844 301.425781 152.78125 299.957031 151.886719 298.464844 C 150.992188 296.972656 150.132812 295.460938 149.3125 293.925781 C 148.492188 292.394531 147.707031 290.839844 146.960938 289.269531 C 146.21875 287.695312 145.511719 286.109375 144.84375 284.5 C 144.179688 282.894531 143.550781 281.273438 142.964844 279.636719 C 142.378906 278 141.832031 276.347656 141.328125 274.683594 C 140.820312 273.019531 140.355469 271.34375 139.933594 269.65625 C 139.511719 267.972656 139.128906 266.273438 138.789062 264.570312 C 138.449219 262.863281 138.152344 261.152344 137.894531 259.429688 C 137.640625 257.710938 137.425781 255.984375 137.257812 254.253906 C 137.085938 252.523438 136.957031 250.792969 136.871094 249.054688 C 136.785156 247.316406 136.742188 245.578125 136.742188 243.839844 C 136.742188 242.101562 136.785156 240.363281 136.871094 238.628906 C 136.957031 236.890625 137.085938 235.15625 137.257812 233.425781 C 137.425781 231.695312 137.640625 229.972656 137.894531 228.25 C 138.152344 226.53125 138.449219 224.816406 138.789062 223.113281 C 139.128906 221.40625 139.511719 219.710938 139.933594 218.023438 C 140.355469 216.335938 140.820312 214.664062 141.328125 213 C 141.832031 211.335938 142.378906 209.683594 142.964844 208.046875 C 143.550781 206.410156 144.179688 204.789062 144.84375 203.179688 C 145.511719 201.574219 146.21875 199.984375 146.960938 198.414062 C 147.707031 196.839844 148.492188 195.289062 149.3125 193.753906 C 150.132812 192.222656 150.992188 190.710938 151.886719 189.21875 C 152.78125 187.726562 153.714844 186.257812 154.679688 184.8125 C 155.648438 183.367188 156.652344 181.945312 157.6875 180.546875 C 158.726562 179.152344 159.796875 177.78125 160.902344 176.4375 C 162.007812 175.09375 163.144531 173.777344 164.316406 172.488281 C 165.484375 171.199219 166.6875 169.941406 167.917969 168.710938 C 169.148438 167.480469 170.410156 166.28125 171.699219 165.113281 C 172.992188 163.945312 174.308594 162.8125 175.65625 161.707031 C 177.003906 160.605469 178.375 159.535156 179.773438 158.5 C 181.175781 157.464844 182.597656 156.464844 184.046875 155.496094 C 185.496094 154.53125 186.964844 153.601562 188.460938 152.707031 C 189.953125 151.8125 191.46875 150.957031 193.003906 150.136719 C 194.542969 149.316406 196.097656 148.535156 197.671875 147.792969 C 199.246094 147.046875 200.839844 146.34375 202.449219 145.679688 C 204.058594 145.011719 205.679688 144.386719 207.320312 143.800781 C 208.960938 143.214844 210.613281 142.671875 212.28125 142.167969 C 213.949219 141.660156 215.628906 141.199219 217.316406 140.773438 C 219.007812 140.351562 220.707031 139.972656 222.414062 139.632812 C 224.121094 139.292969 225.839844 138.996094 227.5625 138.742188 C 229.285156 138.484375 231.011719 138.273438 232.746094 138.101562 C 234.480469 137.933594 236.214844 137.804688 237.957031 137.71875 C 239.695312 137.632812 241.4375 137.589844 243.179688 137.589844 C 244.921875 137.589844 246.660156 137.632812 248.402344 137.71875 C 250.140625 137.804688 251.878906 137.933594 253.609375 138.101562 C 255.34375 138.273438 257.074219 138.484375 258.796875 138.742188 C 260.519531 138.996094 262.234375 139.292969 263.941406 139.632812 C 265.652344 139.972656 267.351562 140.351562 269.039062 140.773438 C 270.730469 141.199219 272.40625 141.660156 274.074219 142.167969 C 275.742188 142.671875 277.394531 143.214844 279.035156 143.800781 C 280.675781 144.386719 282.300781 145.011719 283.910156 145.679688 C 285.519531 146.34375 287.109375 147.046875 288.683594 147.792969 C 290.257812 148.535156 291.816406 149.316406 293.351562 150.136719 C 294.886719 150.957031 296.402344 151.8125 297.894531 152.707031 C 299.390625 153.601562 300.863281 154.53125 302.308594 155.496094 C 303.757812 156.464844 305.183594 157.464844 306.582031 158.5 C 307.980469 159.535156 309.351562 160.605469 310.699219 161.707031 C 312.046875 162.8125 313.363281 163.945312 314.65625 165.113281 C 315.945312 166.28125 317.207031 167.480469 318.4375 168.710938 C 319.671875 169.941406 320.871094 171.199219 322.039062 172.488281 C 323.210938 173.777344 324.347656 175.09375 325.453125 176.4375 C 326.558594 177.78125 327.628906 179.152344 328.667969 180.546875 C 329.703125 181.945312 330.707031 183.367188 331.675781 184.8125 C 332.644531 186.257812 333.574219 187.726562 334.46875 189.21875 C 335.367188 190.710938 336.222656 192.222656 337.046875 193.753906 C 337.867188 195.289062 338.648438 196.839844 339.394531 198.414062 C 340.136719 199.984375 340.84375 201.574219 341.511719 203.179688 C 342.175781 204.789062 342.804688 206.410156 343.390625 208.046875 C 343.976562 209.683594 344.523438 211.335938 345.03125 213 C 345.535156 214.664062 346 216.335938 346.421875 218.023438 C 346.847656 219.710938 347.226562 221.40625 347.566406 223.113281 C 347.90625 224.816406 348.203125 226.53125 348.460938 228.25 C 348.714844 229.972656 348.929688 231.695312 349.101562 233.425781 C 349.269531 235.15625 349.398438 236.890625 349.484375 238.628906 C 349.570312 240.363281 349.613281 242.101562 349.613281 243.839844 Z M 349.613281 243.839844 "/>
<path style=" stroke:none;fill-rule:nonzero;fill:rgb(100%,100%,100%);fill-opacity:1;" d="M 213.320312 231.59375 L 243.179688 201.789062 L 273.050781 231.609375 L 290.421875 214.265625 L 243.179688 167.105469 L 195.949219 214.253906 Z M 183.683594 226.496094 L 201.054688 243.839844 L 183.679688 261.183594 L 166.308594 243.839844 Z M 213.320312 256.085938 L 243.179688 285.890625 L 273.050781 256.070312 L 290.433594 273.40625 L 290.421875 273.414062 L 243.179688 320.578125 L 195.949219 273.429688 L 195.925781 273.40625 Z M 320.050781 243.84375 L 302.675781 261.183594 L 285.304688 243.84375 L 302.675781 226.5 Z M 320.050781 243.84375 "/>
<path style=" stroke:none;fill-rule:nonzero;fill:rgb(100%,100%,100%);fill-opacity:1;" d="M 260.800781 243.832031 L 260.808594 243.832031 L 243.179688 226.234375 L 225.539062 243.839844 L 225.5625 243.863281 L 243.179688 261.449219 L 260.816406 243.839844 Z M 260.800781 243.832031 "/>
</g>
</svg>
