<?xml version="1.0" encoding="UTF-8"?>
<svg xmlns="http://www.w3.org/2000/svg" xmlns:xlink="http://www.w3.org/1999/xlink" width="375pt" height="374.999991pt" viewBox="0 0 375 374.999991" version="1.2">
<defs>
<clipPath id="clip1">
  <path d="M 20.945312 20.945312 L 354.054688 20.945312 L 354.054688 354.054688 L 20.945312 354.054688 Z M 20.945312 20.945312 "/>
</clipPath>
<clipPath id="clip2">
  <path d="M 354.054688 187.503906 C 354.054688 279.484375 279.484375 354.054688 187.5 354.054688 C 95.515625 354.054688 20.945312 279.484375 20.945312 187.503906 C 20.945312 95.515625 95.515625 20.945312 187.5 20.945312 C 279.484375 20.945312 354.054688 95.515625 354.054688 187.503906 Z M 354.054688 187.503906 "/>
</clipPath>
<clipPath id="clip3">
  <path d="M 75 84.714844 L 299.929688 84.714844 L 299.929688 325.464844 L 75 325.464844 Z M 75 84.714844 "/>
</clipPath>
</defs>
<g id="surface1">
<g clip-path="url(#clip1)" clip-rule="nonzero">
<g clip-path="url(#clip2)" clip-rule="nonzero">
<path style=" stroke:none;fill-rule:nonzero;fill:rgb(18.818665%,77.648926%,49.409485%);fill-opacity:1;" d="M 20.945312 20.945312 L 354.054688 20.945312 L 354.054688 354.054688 L 20.945312 354.054688 Z M 20.945312 20.945312 "/>
</g>
</g>
<g clip-path="url(#clip3)" clip-rule="nonzero">
<path style=" stroke:none;fill-rule:nonzero;fill:rgb(100%,100%,100%);fill-opacity:1;" d="M 293.394531 84.90625 C 292.742188 84.90625 292.171875 85.007812 291.601562 85.09375 C 289.316406 85.421875 286.539062 86.167969 281.308594 87.5625 C 276.441406 88.847656 265.589844 91.320312 257.664062 92.914062 C 236.699219 97.082031 228.28125 102.058594 218.960938 109.046875 L 218.949219 109.058594 C 204.785156 119.71875 198.488281 134.363281 198.488281 150.609375 C 198.488281 166.828125 207.40625 176.65625 208.21875 177.535156 C 205.277344 184.285156 202.269531 190.300781 199.523438 198.601562 C 193.277344 215.429688 188.660156 228.925781 185.558594 239.121094 L 185.546875 239.128906 C 183.542969 245.8125 181.816406 251.101562 180.171875 256.085938 C 178.820312 251.28125 177.550781 246.851562 175.464844 238.703125 L 175.441406 238.628906 L 175.421875 238.566406 C 157.203125 174.53125 138.140625 135.730469 119.921875 115.710938 C 109.976562 104.707031 96.972656 94.574219 86.875 91.171875 C 85.433594 90.675781 84.261719 90.300781 82.875 90.109375 C 82.175781 90.011719 81.40625 89.910156 80.214844 90.148438 C 79.019531 90.390625 76.984375 91.40625 76.046875 93.320312 C 75.113281 95.234375 75.46875 96.875 75.765625 97.824219 C 76.066406 98.777344 76.425781 99.378906 76.789062 99.953125 C 77.519531 101.105469 78.359375 102.113281 79.441406 103.332031 C 97.605469 124.039062 122.429688 160.855469 142.175781 242.632812 L 142.195312 242.71875 L 142.21875 242.800781 C 145.203125 253.621094 152.03125 282.203125 154.136719 292.828125 L 154.136719 292.839844 C 155.359375 298.992188 156.644531 305.058594 157.71875 309.859375 C 158.253906 312.261719 158.734375 314.347656 159.136719 315.980469 C 159.539062 317.617188 159.75 318.550781 160.191406 319.726562 L 160.242188 319.863281 L 160.308594 319.996094 C 160.871094 321.277344 161.371094 321.863281 162.164062 322.6875 C 162.957031 323.511719 163.914062 324.5 165.996094 325.054688 L 166.675781 325.234375 L 190.140625 325.234375 C 192.488281 325.234375 194.351562 324.003906 195.464844 322.886719 C 196.574219 321.769531 197.261719 320.617188 197.894531 319.382812 C 199.160156 316.910156 200.121094 314.011719 201.089844 310.621094 C 203.023438 303.835938 204.824219 295.167969 206.738281 286.476562 C 210.5625 269.101562 214.785156 251.746094 219.992188 233.445312 L 220.003906 233.445312 L 220.003906 233.4375 C 224.429688 217.785156 228.394531 204.746094 231.882812 195.359375 C 233.625 190.664062 235.253906 186.890625 236.671875 184.253906 C 238.039062 181.710938 239.300781 180.457031 239.34375 180.394531 C 239.746094 180.265625 240.371094 180.078125 241.121094 179.894531 C 242.621094 179.519531 244.613281 179.109375 246.609375 178.777344 C 263.921875 175.882812 272.902344 169.96875 282.71875 157.699219 C 289.742188 148.941406 293.089844 138.609375 294.722656 118.820312 L 294.722656 118.808594 C 295.542969 108.625 295.902344 106.59375 297.757812 100.652344 L 297.769531 100.632812 L 297.769531 100.609375 C 298.40625 98.503906 298.945312 96.511719 299.324219 94.90625 C 299.511719 94.105469 299.664062 93.414062 299.773438 92.769531 C 299.828125 92.445312 299.875 92.132812 299.910156 91.746094 C 299.941406 91.359375 300.195312 91.203125 299.722656 89.523438 L 299.648438 89.296875 L 299.5625 89.054688 C 299.195312 88.101562 297.539062 85.929688 295.703125 85.3125 C 294.785156 85.003906 294.046875 84.902344 293.394531 84.90625 Z M 287.675781 97.003906 C 287.625 97.175781 287.601562 97.296875 287.550781 97.472656 C 287.550781 97.472656 287.550781 97.480469 287.550781 97.480469 C 287.546875 97.492188 287.542969 97.5 287.539062 97.511719 C 285.566406 103.828125 284.898438 107.601562 284.0625 117.953125 L 284.074219 117.945312 C 282.507812 136.933594 280.015625 144.007812 274.386719 151.023438 L 274.375 151.023438 C 265.273438 162.40625 260.753906 165.585938 244.847656 168.242188 C 242.566406 168.621094 240.375 169.085938 238.550781 169.535156 C 237.640625 169.761719 236.824219 169.980469 236.089844 170.214844 C 235.355469 170.449219 234.90625 170.492188 233.699219 171.246094 L 233.644531 171.277344 L 233.605469 171.300781 C 230.667969 173.214844 229.054688 175.851562 227.257812 179.195312 C 225.460938 182.539062 223.707031 186.683594 221.863281 191.644531 C 218.171875 201.574219 214.167969 214.773438 209.710938 230.535156 L 209.722656 230.527344 C 204.445312 249.070312 200.148438 266.648438 196.289062 284.183594 C 194.359375 292.949219 192.554688 301.558594 190.808594 307.691406 C 189.933594 310.757812 189.042969 313.230469 188.386719 314.511719 C 188.371094 314.542969 188.378906 314.523438 188.363281 314.554688 L 169.828125 314.554688 C 169.695312 314.089844 169.691406 314.101562 169.523438 313.425781 C 169.148438 311.910156 168.671875 309.882812 168.144531 307.535156 C 167.09375 302.835938 165.832031 296.820312 164.628906 290.753906 C 162.390625 279.453125 155.722656 251.617188 152.5625 240.132812 L 152.550781 240.101562 C 136.265625 172.675781 116.324219 135.054688 99.085938 111.332031 C 103.59375 114.871094 108.273438 118.753906 112 122.875 L 112.007812 122.886719 L 112.019531 122.898438 C 128.042969 140.503906 147.152344 178.257812 165.140625 241.476562 C 168.0625 252.882812 170.242188 260.953125 171.851562 266.226562 C 172.660156 268.875 173.308594 270.804688 173.960938 272.335938 C 174.285156 273.101562 174.558594 273.738281 175.179688 274.609375 C 175.492188 275.042969 175.851562 275.582031 176.820312 276.226562 C 177.757812 276.851562 179.890625 277.410156 181.746094 276.789062 C 184.148438 275.945312 184.3125 275.070312 184.605469 274.640625 C 184.921875 274.183594 185.082031 273.855469 185.253906 273.515625 C 185.597656 272.835938 185.898438 272.121094 186.246094 271.25 C 186.945312 269.511719 187.785156 267.195312 188.761719 264.347656 C 190.710938 258.65625 193.183594 250.886719 195.785156 242.21875 C 198.804688 232.292969 203.367188 218.925781 209.605469 202.128906 L 209.648438 202.042969 L 209.679688 201.949219 C 218.429688 175.496094 228.644531 157.847656 236.570312 146.875 C 244.492188 135.898438 249.761719 131.878906 249.761719 131.878906 C 250.054688 131.667969 250.324219 131.429688 250.566406 131.167969 C 250.8125 130.902344 251.027344 130.617188 251.214844 130.3125 C 251.402344 130.003906 251.554688 129.683594 251.675781 129.34375 C 251.796875 129.007812 251.886719 128.660156 251.9375 128.304688 C 251.988281 127.949219 252.003906 127.589844 251.984375 127.230469 C 251.960938 126.875 251.90625 126.519531 251.816406 126.171875 C 251.722656 125.824219 251.597656 125.492188 251.4375 125.167969 C 251.277344 124.847656 251.085938 124.542969 250.867188 124.261719 C 250.648438 123.976562 250.398438 123.71875 250.125 123.484375 C 249.855469 123.25 249.558594 123.046875 249.246094 122.871094 C 248.933594 122.695312 248.601562 122.554688 248.261719 122.445312 C 247.917969 122.339844 247.566406 122.265625 247.210938 122.226562 C 246.851562 122.191406 246.496094 122.1875 246.136719 122.222656 C 245.777344 122.257812 245.429688 122.328125 245.085938 122.429688 C 244.742188 122.535156 244.410156 122.675781 244.09375 122.847656 C 243.777344 123.019531 243.484375 123.21875 243.207031 123.449219 C 243.207031 123.449219 236.453125 128.777344 227.894531 140.628906 C 223.355469 146.914062 218.222656 155.460938 213.03125 165.875 C 211.113281 162.4375 209.179688 157.480469 209.179688 150.609375 C 209.179688 136.910156 213.601562 126.453125 225.378906 117.589844 C 234.328125 110.882812 239.726562 107.363281 259.761719 103.382812 L 259.773438 103.382812 C 267.941406 101.742188 278.6875 99.304688 284.054688 97.886719 L 284.074219 97.886719 C 286.132812 97.335938 286.308594 97.34375 287.675781 97.003906 Z M 287.675781 97.003906 "/>
</g>
</g>
</svg>
