<?xml version="1.0" encoding="UTF-8"?>
<svg xmlns="http://www.w3.org/2000/svg" xmlns:xlink="http://www.w3.org/1999/xlink" width="150pt" height="149.999998pt" viewBox="0 0 150 149.999998" version="1.2">
<g id="surface1">
<path style=" stroke:none;fill-rule:nonzero;fill:rgb(18.818665%,77.648926%,49.409485%);fill-opacity:1;" d="M 26.121094 45.445312 C 25.761719 45.742188 25.265625 45.316406 25.5 44.917969 C 27.046875 42.304688 30.628906 36.894531 36.328125 31.777344 C 38.585938 29.738281 40.984375 27.894531 43.5 26.257812 C 48.921875 22.726562 54.441406 20.578125 58.5625 19.320312 C 59.050781 19.167969 59.320312 19.863281 58.859375 20.085938 C 44.5625 27.046875 31.160156 41.265625 26.121094 45.445312 Z M 42.648438 123.019531 C 57.011719 129.457031 77.15625 115.789062 102.269531 98.113281 C 112.21875 91.113281 120.125 84.769531 125.574219 80.195312 C 127.339844 78.691406 130.574219 75.464844 131.78125 70.46875 C 133.996094 61.296875 128.140625 51.320312 120.496094 48.230469 C 115.996094 46.414062 111.703125 47.320312 109.867188 47.746094 C 93.984375 51.449219 82.367188 61.453125 67.671875 71.972656 C 67.671875 71.972656 32.007812 96.84375 21.527344 90.515625 C 21.066406 90.234375 20.367188 89.964844 19.859375 89.871094 C 19.734375 89.84375 19.636719 89.855469 19.574219 89.90625 C 19.097656 90.253906 19.734375 92.113281 19.957031 92.753906 C 24.527344 105.789062 32.105469 113.855469 32.105469 113.855469 C 36.898438 118.964844 39.296875 121.515625 42.648438 123.019531 Z M 127.660156 93.84375 C 125.605469 92.195312 119.082031 96.851562 108.144531 104.933594 C 88.308594 119.5625 72.863281 130.234375 61.117188 130.453125 C 60.632812 130.460938 60.554688 131.148438 61.019531 131.265625 C 75.398438 134.90625 90.484375 132.816406 103.183594 125.867188 C 120.625 115.757812 130.851562 96.410156 127.660156 93.84375 Z M 18.332031 64.339844 C 14.980469 85.589844 25.484375 85.320312 57.085938 63.324219 C 78.851562 48.179688 91.644531 40.328125 105.507812 36.621094 C 117.632812 32.40625 104.007812 24.183594 98.289062 21.628906 C 76.875 12.085938 68.15625 16.476562 36.925781 41.15625 C 34.359375 43.179688 25.644531 51.257812 24.152344 49.964844 C 23.570312 49.460938 24.445312 47.765625 23.945312 47.605469 C 23.621094 47.5 22.546875 49.722656 21.339844 53.140625 C 20.40625 55.773438 19.242188 59.546875 18.332031 64.339844 "/>
<path style=" stroke:none;fill-rule:nonzero;fill:rgb(18.818665%,77.648926%,49.409485%);fill-opacity:1;" d="M 125.097656 125.097656 C 107.199219 143 81.105469 149.992188 56.652344 143.4375 C 32.199219 136.886719 13.105469 117.785156 6.550781 93.332031 C 0 68.878906 6.992188 42.789062 24.890625 24.890625 C 42.785156 6.988281 68.878906 0 93.332031 6.550781 C 117.785156 13.105469 136.886719 32.203125 143.4375 56.65625 C 149.992188 81.105469 143 107.199219 125.097656 125.097656 Z M 137.734375 58.183594 C 131.730469 35.769531 114.222656 18.261719 91.804688 12.253906 C 69.390625 6.25 45.472656 12.65625 29.066406 29.066406 C 12.65625 45.472656 6.25 69.390625 12.253906 91.804688 C 18.261719 114.222656 35.769531 131.730469 58.183594 137.734375 C 80.597656 143.742188 104.511719 137.335938 120.921875 120.925781 C 137.332031 104.515625 143.742188 80.597656 137.734375 58.183594 Z M 137.734375 58.183594 "/>
</g>
</svg>
