<?xml version="1.0" encoding="UTF-8"?>
<svg xmlns="http://www.w3.org/2000/svg" xmlns:xlink="http://www.w3.org/1999/xlink" width="750pt" height="749.999995pt" viewBox="0 0 750 749.999995" version="1.2">
<defs>
<clipPath id="clip1">
  <path d="M 13.785156 13.789062 L 736.214844 13.789062 L 736.214844 736.214844 L 13.785156 736.214844 Z M 13.785156 13.789062 "/>
</clipPath>
<clipPath id="clip2">
  <path d="M 736.214844 375.003906 C 736.214844 574.488281 574.488281 736.210938 375 736.210938 C 175.507812 736.210938 13.785156 574.488281 13.785156 375.003906 C 13.785156 175.511719 175.507812 13.789062 375 13.789062 C 574.492188 13.789062 736.214844 175.511719 736.214844 375.003906 Z M 736.214844 375.003906 "/>
</clipPath>
<clipPath id="clip3">
  <path d="M 131 152.085938 L 619.113281 152.085938 L 619.113281 674.835938 L 131 674.835938 Z M 131 152.085938 "/>
</clipPath>
</defs>
<g id="surface1">
<g clip-path="url(#clip1)" clip-rule="nonzero">
<g clip-path="url(#clip2)" clip-rule="nonzero">
<path style=" stroke:none;fill-rule:nonzero;fill:rgb(18.818665%,77.648926%,49.409485%);fill-opacity:1;" d="M 13.785156 13.789062 L 736.214844 13.789062 L 736.214844 736.214844 L 13.785156 736.214844 Z M 13.785156 13.789062 "/>
</g>
</g>
<g clip-path="url(#clip3)" clip-rule="nonzero">
<path style=" stroke:none;fill-rule:nonzero;fill:rgb(100%,100%,100%);fill-opacity:1;" d="M 604.933594 152.503906 C 603.515625 152.507812 602.277344 152.730469 601.039062 152.910156 C 596.085938 153.628906 590.054688 155.246094 578.703125 158.277344 C 568.140625 161.070312 544.597656 166.433594 527.398438 169.894531 C 481.90625 178.941406 463.636719 189.753906 443.410156 204.925781 L 443.386719 204.949219 C 412.652344 228.089844 398.988281 259.890625 398.988281 295.164062 C 398.988281 330.382812 418.335938 351.722656 420.101562 353.632812 C 413.71875 368.285156 407.191406 381.347656 401.230469 399.375 C 387.679688 435.910156 377.65625 465.21875 370.925781 487.347656 L 370.902344 487.371094 C 366.550781 501.882812 362.804688 513.363281 359.238281 524.191406 C 356.304688 513.753906 353.550781 504.132812 349.019531 486.441406 L 348.976562 486.285156 L 348.929688 486.148438 C 309.398438 347.109375 268.035156 262.859375 228.496094 219.394531 C 206.914062 195.496094 178.695312 173.503906 156.78125 166.113281 C 153.65625 165.03125 151.117188 164.222656 148.105469 163.800781 C 146.585938 163.589844 144.917969 163.371094 142.328125 163.894531 C 139.742188 164.417969 135.320312 166.621094 133.292969 170.777344 C 131.265625 174.933594 132.03125 178.492188 132.679688 180.558594 C 133.328125 182.628906 134.109375 183.929688 134.898438 185.179688 C 136.480469 187.679688 138.304688 189.867188 140.652344 192.515625 C 180.070312 237.472656 233.9375 317.417969 276.785156 494.980469 L 276.832031 495.160156 L 276.878906 495.34375 C 283.355469 518.832031 298.179688 580.890625 302.746094 603.96875 L 302.746094 603.992188 C 305.394531 617.347656 308.183594 630.519531 310.515625 640.945312 C 311.679688 646.160156 312.71875 650.6875 313.59375 654.238281 C 314.46875 657.789062 314.921875 659.816406 315.882812 662.367188 L 315.996094 662.664062 L 316.132812 662.957031 C 317.355469 665.738281 318.445312 667.007812 320.164062 668.800781 C 321.882812 670.589844 323.960938 672.734375 328.476562 673.941406 L 329.949219 674.324219 L 380.867188 674.324219 C 385.960938 674.324219 390.007812 671.65625 392.421875 669.230469 C 394.835938 666.800781 396.324219 664.304688 397.699219 661.621094 C 400.449219 656.253906 402.53125 649.964844 404.628906 642.601562 C 408.824219 627.871094 412.734375 609.042969 416.882812 590.175781 C 425.183594 552.449219 434.351562 514.765625 445.652344 475.03125 L 445.675781 475.03125 L 445.675781 475.007812 C 455.277344 441.023438 463.882812 412.710938 471.449219 392.332031 C 475.234375 382.140625 478.769531 373.945312 481.847656 368.214844 C 484.8125 362.695312 487.550781 359.972656 487.644531 359.835938 C 488.515625 359.558594 489.871094 359.152344 491.496094 358.75 C 494.75 357.941406 499.078125 357.046875 503.410156 356.328125 C 540.976562 350.042969 560.464844 337.203125 581.761719 310.5625 C 597.007812 291.546875 604.273438 269.109375 607.8125 226.144531 L 607.8125 226.121094 C 609.589844 204.011719 610.375 199.597656 614.402344 186.695312 L 614.425781 186.652344 L 614.425781 186.605469 C 615.808594 182.035156 616.980469 177.703125 617.800781 174.21875 C 618.210938 172.476562 618.535156 170.984375 618.773438 169.578125 C 618.894531 168.875 618.996094 168.199219 619.070312 167.359375 C 619.140625 166.515625 619.691406 166.179688 618.660156 162.535156 L 618.503906 162.035156 L 618.320312 161.515625 C 617.519531 159.441406 613.925781 154.726562 609.941406 153.386719 C 607.949219 152.714844 606.351562 152.5 604.933594 152.503906 Z M 592.519531 178.769531 C 592.410156 179.148438 592.363281 179.40625 592.25 179.789062 C 592.25 179.789062 592.25 179.8125 592.25 179.8125 C 592.242188 179.839844 592.234375 179.855469 592.226562 179.878906 C 587.949219 193.59375 586.496094 201.785156 584.683594 224.265625 L 584.707031 224.242188 C 581.308594 265.472656 575.902344 280.835938 563.6875 296.070312 L 563.664062 296.070312 C 543.910156 320.78125 534.101562 327.683594 499.582031 333.457031 C 494.636719 334.277344 489.878906 335.28125 485.925781 336.265625 C 483.945312 336.753906 482.171875 337.226562 480.578125 337.734375 C 478.988281 338.246094 478.007812 338.339844 475.390625 339.976562 L 475.277344 340.046875 L 475.1875 340.089844 C 468.816406 344.246094 465.316406 349.972656 461.417969 357.234375 C 457.515625 364.492188 453.707031 373.492188 449.707031 384.269531 C 441.699219 405.828125 433.011719 434.488281 423.339844 468.710938 L 423.363281 468.6875 C 411.910156 508.953125 402.585938 547.125 394.210938 585.195312 C 390.023438 604.230469 386.113281 622.917969 382.320312 636.238281 C 380.421875 642.894531 378.488281 648.261719 377.0625 651.046875 C 377.03125 651.113281 377.050781 651.074219 377.019531 651.136719 L 336.789062 651.136719 C 336.507812 650.128906 336.492188 650.152344 336.132812 648.691406 C 335.320312 645.402344 334.28125 641 333.144531 635.898438 C 330.863281 625.695312 328.125 612.632812 325.507812 599.460938 C 320.652344 574.921875 306.1875 514.484375 299.324219 489.546875 L 299.300781 489.476562 C 263.964844 343.082031 220.691406 261.390625 183.28125 209.882812 C 193.066406 217.570312 203.21875 226 211.300781 234.953125 L 211.324219 234.976562 L 211.347656 234.996094 C 246.125 273.222656 287.589844 355.199219 326.621094 492.464844 C 332.964844 517.230469 337.691406 534.753906 341.183594 546.203125 C 342.9375 551.957031 344.34375 556.148438 345.757812 559.472656 C 346.46875 561.132812 347.058594 562.519531 348.410156 564.40625 C 349.085938 565.351562 349.863281 566.519531 351.964844 567.917969 C 354.003906 569.273438 358.625 570.488281 362.65625 569.140625 C 367.867188 567.3125 368.222656 565.410156 368.863281 564.476562 C 369.546875 563.480469 369.894531 562.769531 370.269531 562.03125 C 371.011719 560.550781 371.664062 559.003906 372.421875 557.117188 C 373.933594 553.339844 375.761719 548.3125 377.878906 542.125 C 382.109375 529.765625 387.476562 512.902344 393.125 494.074219 C 399.675781 472.527344 409.574219 443.507812 423.113281 407.027344 L 423.203125 406.847656 L 423.273438 406.644531 C 442.261719 349.199219 464.421875 310.882812 481.621094 287.058594 C 498.820312 263.230469 510.253906 254.496094 510.253906 254.496094 C 510.886719 254.039062 511.46875 253.527344 512 252.953125 C 512.527344 252.382812 512.996094 251.761719 513.402344 251.09375 C 513.808594 250.429688 514.140625 249.730469 514.40625 248.996094 C 514.667969 248.261719 514.859375 247.507812 514.96875 246.734375 C 515.082031 245.964844 515.113281 245.1875 515.070312 244.410156 C 515.023438 243.628906 514.902344 242.863281 514.703125 242.109375 C 514.503906 241.355469 514.230469 240.628906 513.886719 239.929688 C 513.539062 239.230469 513.128906 238.574219 512.648438 237.957031 C 512.167969 237.34375 511.632812 236.78125 511.042969 236.273438 C 510.449219 235.765625 509.8125 235.320312 509.128906 234.941406 C 508.449219 234.5625 507.734375 234.253906 506.992188 234.019531 C 506.25 233.785156 505.488281 233.625 504.710938 233.542969 C 503.9375 233.460938 503.160156 233.457031 502.382812 233.53125 C 501.605469 233.605469 500.84375 233.757812 500.097656 233.984375 C 499.351562 234.214844 498.636719 234.511719 497.953125 234.886719 C 497.265625 235.257812 496.625 235.695312 496.027344 236.199219 C 496.027344 236.199219 481.371094 247.761719 462.796875 273.492188 C 452.949219 287.140625 441.808594 305.703125 430.542969 328.316406 C 426.386719 320.851562 422.183594 310.089844 422.183594 295.164062 C 422.183594 265.417969 431.78125 242.714844 457.339844 223.472656 C 476.753906 208.910156 488.476562 201.269531 531.953125 192.628906 L 531.976562 192.628906 C 549.699219 189.0625 573.019531 183.773438 584.660156 180.695312 L 584.707031 180.695312 C 589.175781 179.5 589.554688 179.515625 592.519531 178.769531 Z M 592.519531 178.769531 "/>
</g>
</g>
</svg>
