<?xml version="1.0" encoding="UTF-8"?>
<svg xmlns="http://www.w3.org/2000/svg" xmlns:xlink="http://www.w3.org/1999/xlink" width="375pt" height="374.999991pt" viewBox="0 0 375 374.999991" version="1.2">
<defs>
<clipPath id="clip1">
  <path d="M 6.894531 6.894531 L 368.105469 6.894531 L 368.105469 368.109375 L 6.894531 368.109375 Z M 6.894531 6.894531 "/>
</clipPath>
<clipPath id="clip2">
  <path d="M 368.105469 187.503906 C 368.105469 287.242188 287.246094 368.105469 187.5 368.105469 C 87.753906 368.105469 6.894531 287.242188 6.894531 187.503906 C 6.894531 87.753906 87.753906 6.894531 187.5 6.894531 C 287.246094 6.894531 368.105469 87.753906 368.105469 187.503906 Z M 368.105469 187.503906 "/>
</clipPath>
<clipPath id="clip3">
  <path d="M 65.433594 76.042969 L 309.933594 76.042969 L 309.933594 337.792969 L 65.433594 337.792969 Z M 65.433594 76.042969 "/>
</clipPath>
</defs>
<g id="surface1">
<g clip-path="url(#clip1)" clip-rule="nonzero">
<g clip-path="url(#clip2)" clip-rule="nonzero">
<path style=" stroke:none;fill-rule:nonzero;fill:rgb(18.818665%,77.648926%,49.409485%);fill-opacity:1;" d="M 6.894531 6.894531 L 368.105469 6.894531 L 368.105469 368.109375 L 6.894531 368.109375 Z M 6.894531 6.894531 "/>
</g>
</g>
<g clip-path="url(#clip3)" clip-rule="nonzero">
<path style=" stroke:none;fill-rule:nonzero;fill:rgb(100%,100%,100%);fill-opacity:1;" d="M 302.832031 76.253906 C 302.121094 76.257812 301.5 76.367188 300.878906 76.460938 C 298.398438 76.820312 295.378906 77.628906 289.695312 79.144531 C 284.40625 80.542969 272.617188 83.230469 264.003906 84.960938 C 241.222656 89.492188 232.074219 94.90625 221.945312 102.503906 L 221.933594 102.515625 C 206.542969 114.101562 199.699219 130.023438 199.699219 147.6875 C 199.699219 165.320312 209.386719 176.003906 210.273438 176.960938 C 207.078125 184.296875 203.808594 190.839844 200.824219 199.863281 C 194.039062 218.160156 189.015625 232.832031 185.648438 243.914062 L 185.636719 243.925781 C 183.457031 251.191406 181.582031 256.941406 179.792969 262.359375 C 178.324219 257.136719 176.945312 252.316406 174.679688 243.460938 L 174.65625 243.382812 L 174.632812 243.3125 C 154.835938 173.695312 134.121094 131.511719 114.324219 109.75 C 103.515625 97.78125 89.382812 86.769531 78.410156 83.070312 C 76.84375 82.527344 75.574219 82.125 74.066406 81.914062 C 73.304688 81.804688 72.46875 81.695312 71.171875 81.957031 C 69.878906 82.21875 67.664062 83.324219 66.648438 85.40625 C 65.632812 87.488281 66.015625 89.265625 66.339844 90.304688 C 66.667969 91.339844 67.058594 91.988281 67.453125 92.617188 C 68.246094 93.867188 69.15625 94.964844 70.335938 96.289062 C 90.074219 118.800781 117.046875 158.828125 138.503906 247.734375 L 138.527344 247.824219 L 138.550781 247.917969 C 141.796875 259.679688 149.21875 290.75 151.503906 302.304688 L 151.503906 302.316406 C 152.832031 309.003906 154.226562 315.601562 155.394531 320.820312 C 155.980469 323.429688 156.5 325.699219 156.9375 327.476562 C 157.375 329.253906 157.601562 330.269531 158.082031 331.546875 L 158.140625 331.695312 L 158.207031 331.84375 C 158.820312 333.234375 159.367188 333.871094 160.226562 334.765625 C 161.089844 335.664062 162.128906 336.738281 164.390625 337.339844 L 165.128906 337.535156 L 190.625 337.535156 C 193.175781 337.535156 195.203125 336.199219 196.410156 334.984375 C 197.621094 333.765625 198.367188 332.515625 199.054688 331.171875 C 200.429688 328.488281 201.476562 325.335938 202.523438 321.648438 C 204.625 314.273438 206.582031 304.847656 208.660156 295.402344 C 212.820312 276.507812 217.40625 257.640625 223.066406 237.746094 L 223.078125 237.746094 L 223.078125 237.734375 C 227.886719 220.71875 232.195312 206.542969 235.988281 196.339844 C 237.882812 191.234375 239.652344 187.132812 241.195312 184.261719 C 242.675781 181.5 244.050781 180.136719 244.097656 180.066406 C 244.53125 179.929688 245.210938 179.726562 246.027344 179.523438 C 247.65625 179.121094 249.820312 178.671875 251.992188 178.3125 C 270.804688 175.164062 280.5625 168.734375 291.226562 155.394531 C 298.863281 145.875 302.5 134.640625 304.273438 113.128906 L 304.273438 113.117188 C 305.164062 102.042969 305.554688 99.835938 307.574219 93.375 L 307.582031 93.351562 L 307.582031 93.332031 C 308.277344 91.042969 308.863281 88.871094 309.273438 87.128906 C 309.480469 86.257812 309.640625 85.507812 309.761719 84.804688 C 309.820312 84.453125 309.875 84.113281 309.910156 83.691406 C 309.945312 83.273438 310.21875 83.101562 309.703125 81.277344 L 309.625 81.027344 L 309.535156 80.769531 C 309.132812 79.730469 307.332031 77.367188 305.339844 76.695312 C 304.339844 76.359375 303.542969 76.253906 302.832031 76.253906 Z M 296.613281 89.40625 C 296.558594 89.597656 296.535156 89.726562 296.480469 89.917969 C 296.480469 89.917969 296.480469 89.929688 296.480469 89.929688 C 296.476562 89.941406 296.472656 89.949219 296.46875 89.964844 C 294.324219 96.828125 293.597656 100.929688 292.691406 112.1875 L 292.703125 112.175781 C 291 132.820312 288.292969 140.511719 282.175781 148.140625 L 282.164062 148.140625 C 272.273438 160.511719 267.359375 163.96875 250.074219 166.859375 C 247.597656 167.269531 245.214844 167.773438 243.234375 168.265625 C 242.242188 168.511719 241.355469 168.746094 240.558594 169 C 239.761719 169.257812 239.269531 169.304688 237.960938 170.125 L 237.902344 170.160156 L 237.859375 170.179688 C 234.667969 172.261719 232.914062 175.128906 230.960938 178.765625 C 229.007812 182.398438 227.101562 186.90625 225.097656 192.300781 C 221.089844 203.097656 216.738281 217.445312 211.894531 234.582031 L 211.90625 234.570312 C 206.171875 254.730469 201.503906 273.84375 197.308594 292.90625 C 195.210938 302.4375 193.25 311.792969 191.351562 318.464844 C 190.402344 321.796875 189.433594 324.484375 188.722656 325.878906 C 188.703125 325.910156 188.714844 325.890625 188.699219 325.921875 L 168.554688 325.921875 C 168.410156 325.417969 168.40625 325.429688 168.222656 324.699219 C 167.816406 323.050781 167.296875 320.847656 166.726562 318.292969 C 165.585938 313.183594 164.214844 306.644531 162.902344 300.050781 C 160.472656 287.761719 153.230469 257.5 149.792969 245.011719 L 149.78125 244.980469 C 132.085938 171.679688 110.414062 130.777344 91.683594 104.984375 C 96.582031 108.835938 101.664062 113.054688 105.714844 117.539062 L 105.722656 117.550781 L 105.734375 117.558594 C 123.148438 136.699219 143.914062 177.746094 163.460938 246.476562 C 166.636719 258.875 169.003906 267.648438 170.753906 273.382812 C 171.632812 276.265625 172.335938 278.363281 173.042969 280.027344 C 173.398438 280.859375 173.695312 281.550781 174.371094 282.496094 C 174.710938 282.972656 175.101562 283.554688 176.152344 284.253906 C 177.171875 284.933594 179.488281 285.542969 181.507812 284.867188 C 184.117188 283.953125 184.292969 283 184.613281 282.53125 C 184.957031 282.035156 185.132812 281.675781 185.316406 281.308594 C 185.691406 280.566406 186.015625 279.792969 186.394531 278.847656 C 187.152344 276.957031 188.070312 274.4375 189.128906 271.339844 C 191.246094 265.152344 193.933594 256.707031 196.761719 247.28125 C 200.042969 236.492188 205.003906 221.960938 211.78125 203.695312 L 211.828125 203.605469 L 211.859375 203.503906 C 221.371094 174.742188 232.46875 155.558594 241.078125 143.625 C 249.691406 131.695312 255.417969 127.324219 255.417969 127.324219 C 255.734375 127.09375 256.027344 126.835938 256.292969 126.550781 C 256.558594 126.265625 256.792969 125.953125 256.996094 125.621094 C 257.199219 125.285156 257.367188 124.9375 257.496094 124.570312 C 257.628906 124.203125 257.722656 123.824219 257.78125 123.4375 C 257.835938 123.050781 257.851562 122.664062 257.832031 122.273438 C 257.808594 121.882812 257.746094 121.5 257.648438 121.121094 C 257.546875 120.742188 257.410156 120.378906 257.238281 120.03125 C 257.0625 119.679688 256.855469 119.351562 256.617188 119.042969 C 256.378906 118.734375 256.109375 118.453125 255.8125 118.199219 C 255.515625 117.945312 255.195312 117.722656 254.855469 117.53125 C 254.515625 117.34375 254.15625 117.1875 253.785156 117.070312 C 253.414062 116.953125 253.03125 116.875 252.644531 116.832031 C 252.253906 116.789062 251.867188 116.789062 251.476562 116.824219 C 251.089844 116.863281 250.707031 116.9375 250.332031 117.054688 C 249.960938 117.167969 249.601562 117.316406 249.257812 117.503906 C 248.914062 117.691406 248.59375 117.910156 248.292969 118.160156 C 248.292969 118.160156 240.953125 123.953125 231.652344 136.835938 C 226.722656 143.667969 221.140625 152.964844 215.5 164.285156 C 213.421875 160.546875 211.316406 155.160156 211.316406 147.6875 C 211.316406 132.792969 216.121094 121.425781 228.921875 111.789062 C 238.644531 104.496094 244.511719 100.671875 266.285156 96.347656 L 266.296875 96.347656 C 275.171875 94.5625 286.851562 91.910156 292.679688 90.371094 L 292.703125 90.371094 C 294.941406 89.773438 295.128906 89.78125 296.613281 89.40625 Z M 296.613281 89.40625 "/>
</g>
</g>
</svg>
